# vtk DataFile Version 3.0
#This file was generated by the deal.II library on 2026/6/24 at 23:33:29
ASCII
DATASET UNSTRUCTURED_GRID

POINTS 256 double
0 0 0
0.125 0 0
0 0.125 0
0.125 0.125 0
0.125 0 0
0.25 0 0
0.125 0.125 0
0.25 0.125 0
0 0.125 0
0.125 0.125 0
0 0.25 0
0.125 0.25 0
0.125 0.125 0
0.25 0.125 0
0.125 0.25 0
0.25 0.25 0
0.25 0 0
0.375 0 0
0.25 0.125 0
0.375 0.125 0
0.375 0 0
0.5 0 0
0.375 0.125 0
0.5 0.125 0
0.25 0.125 0
0.375 0.125 0
0.25 0.25 0
0.375 0.25 0
0.375 0.125 0
0.5 0.125 0
0.375 0.25 0
0.5 0.25 0
0 0.25 0
0.125 0.25 0
0 0.375 0
0.125 0.375 0
0.125 0.25 0
0.25 0.25 0
0.125 0.375 0
0.25 0.375 0
0 0.375 0
0.125 0.375 0
0 0.5 0
0.125 0.5 0
0.125 0.375 0
0.25 0.375 0
0.125 0.5 0
0.25 0.5 0
0.25 0.25 0
0.375 0.25 0
0.25 0.375 0
0.375 0.375 0
0.375 0.25 0
0.5 0.25 0
0.375 0.375 0
0.5 0.375 0
0.25 0.375 0
0.375 0.375 0
0.25 0.5 0
0.375 0.5 0
0.375 0.375 0
0.5 0.375 0
0.375 0.5 0
0.5 0.5 0
0.5 0 0
0.625 0 0
0.5 0.125 0
0.625 0.125 0
0.625 0 0
0.75 0 0
0.625 0.125 0
0.75 0.125 0
0.5 0.125 0
0.625 0.125 0
0.5 0.25 0
0.625 0.25 0
0.625 0.125 0
0.75 0.125 0
0.625 0.25 0
0.75 0.25 0
0.75 0 0
0.875 0 0
0.75 0.125 0
0.875 0.125 0
0.875 0 0
1 0 0
0.875 0.125 0
1 0.125 0
0.75 0.125 0
0.875 0.125 0
0.75 0.25 0
0.875 0.25 0
0.875 0.125 0
1 0.125 0
0.875 0.25 0
1 0.25 0
0.5 0.25 0
0.625 0.25 0
0.5 0.375 0
0.625 0.375 0
0.625 0.25 0
0.75 0.25 0
0.625 0.375 0
0.75 0.375 0
0.5 0.375 0
0.625 0.375 0
0.5 0.5 0
0.625 0.5 0
0.625 0.375 0
0.75 0.375 0
0.625 0.5 0
0.75 0.5 0
0.75 0.25 0
0.875 0.25 0
0.75 0.375 0
0.875 0.375 0
0.875 0.25 0
1 0.25 0
0.875 0.375 0
1 0.375 0
0.75 0.375 0
0.875 0.375 0
0.75 0.5 0
0.875 0.5 0
0.875 0.375 0
1 0.375 0
0.875 0.5 0
1 0.5 0
0 0.5 0
0.125 0.5 0
0 0.625 0
0.125 0.625 0
0.125 0.5 0
0.25 0.5 0
0.125 0.625 0
0.25 0.625 0
0 0.625 0
0.125 0.625 0
0 0.75 0
0.125 0.75 0
0.125 0.625 0
0.25 0.625 0
0.125 0.75 0
0.25 0.75 0
0.25 0.5 0
0.375 0.5 0
0.25 0.625 0
0.375 0.625 0
0.375 0.5 0
0.5 0.5 0
0.375 0.625 0
0.5 0.625 0
0.25 0.625 0
0.375 0.625 0
0.25 0.75 0
0.375 0.75 0
0.375 0.625 0
0.5 0.625 0
0.375 0.75 0
0.5 0.75 0
0 0.75 0
0.125 0.75 0
0 0.875 0
0.125 0.875 0
0.125 0.75 0
0.25 0.75 0
0.125 0.875 0
0.25 0.875 0
0 0.875 0
0.125 0.875 0
0 1 0
0.125 1 0
0.125 0.875 0
0.25 0.875 0
0.125 1 0
0.25 1 0
0.25 0.75 0
0.375 0.75 0
0.25 0.875 0
0.375 0.875 0
0.375 0.75 0
0.5 0.75 0
0.375 0.875 0
0.5 0.875 0
0.25 0.875 0
0.375 0.875 0
0.25 1 0
0.375 1 0
0.375 0.875 0
0.5 0.875 0
0.375 1 0
0.5 1 0
0.5 0.5 0
0.625 0.5 0
0.5 0.625 0
0.625 0.625 0
0.625 0.5 0
0.75 0.5 0
0.625 0.625 0
0.75 0.625 0
0.5 0.625 0
0.625 0.625 0
0.5 0.75 0
0.625 0.75 0
0.625 0.625 0
0.75 0.625 0
0.625 0.75 0
0.75 0.75 0
0.75 0.5 0
0.875 0.5 0
0.75 0.625 0
0.875 0.625 0
0.875 0.5 0
1 0.5 0
0.875 0.625 0
1 0.625 0
0.75 0.625 0
0.875 0.625 0
0.75 0.75 0
0.875 0.75 0
0.875 0.625 0
1 0.625 0
0.875 0.75 0
1 0.75 0
0.5 0.75 0
0.625 0.75 0
0.5 0.875 0
0.625 0.875 0
0.625 0.75 0
0.75 0.75 0
0.625 0.875 0
0.75 0.875 0
0.5 0.875 0
0.625 0.875 0
0.5 1 0
0.625 1 0
0.625 0.875 0
0.75 0.875 0
0.625 1 0
0.75 1 0
0.75 0.75 0
0.875 0.75 0
0.75 0.875 0
0.875 0.875 0
0.875 0.75 0
1 0.75 0
0.875 0.875 0
1 0.875 0
0.75 0.875 0
0.875 0.875 0
0.75 1 0
0.875 1 0
0.875 0.875 0
1 0.875 0
0.875 1 0
1 1 0

CELLS 64 320
4	0	1	3	2
4	4	5	7	6
4	8	9	11	10
4	12	13	15	14
4	16	17	19	18
4	20	21	23	22
4	24	25	27	26
4	28	29	31	30
4	32	33	35	34
4	36	37	39	38
4	40	41	43	42
4	44	45	47	46
4	48	49	51	50
4	52	53	55	54
4	56	57	59	58
4	60	61	63	62
4	64	65	67	66
4	68	69	71	70
4	72	73	75	74
4	76	77	79	78
4	80	81	83	82
4	84	85	87	86
4	88	89	91	90
4	92	93	95	94
4	96	97	99	98
4	100	101	103	102
4	104	105	107	106
4	108	109	111	110
4	112	113	115	114
4	116	117	119	118
4	120	121	123	122
4	124	125	127	126
4	128	129	131	130
4	132	133	135	134
4	136	137	139	138
4	140	141	143	142
4	144	145	147	146
4	148	149	151	150
4	152	153	155	154
4	156	157	159	158
4	160	161	163	162
4	164	165	167	166
4	168	169	171	170
4	172	173	175	174
4	176	177	179	178
4	180	181	183	182
4	184	185	187	186
4	188	189	191	190
4	192	193	195	194
4	196	197	199	198
4	200	201	203	202
4	204	205	207	206
4	208	209	211	210
4	212	213	215	214
4	216	217	219	218
4	220	221	223	222
4	224	225	227	226
4	228	229	231	230
4	232	233	235	234
4	236	237	239	238
4	240	241	243	242
4	244	245	247	246
4	248	249	251	250
4	252	253	255	254

CELL_TYPES 64
 9 9 9 9 9 9 9 9 9 9 9 9 9 9 9 9 9 9 9 9 9 9 9 9 9 9 9 9 9 9 9 9 9 9 9 9 9 9 9 9 9 9 9 9 9 9 9 9 9 9 9 9 9 9 9 9 9 9 9 9 9 9 9 9
POINT_DATA 256
SCALARS solution double 1
LOOKUP_TABLE default
0 0.382683 0 0.40484 0.382683 0.707107 0.40484 0.748047 0 0.40484 0 0.422585 0.40484 0.748047 0.422585 0.780835 0.707107 0.92388 0.748047 0.977371 0.92388 1 0.977371 1.0579 0.748047 0.977371 0.780835 1.02021 0.977371 1.0579 1.02021 1.10427 0 0.422585 0 0.436667 0.422585 0.780835 0.436667 0.806856 0 0.436667 0 0.44739 0.436667 0.806856 0.44739 0.826668 0.780835 1.02021 0.806856 1.05421 1.02021 1.10427 1.05421 1.14107 0.806856 1.05421 0.826668 1.08009 1.05421 1.14107 1.08009 1.16909 1 0.92388 1.0579 0.977371 0.92388 0.707107 0.977371 0.748047 1.0579 0.977371 1.10427 1.02021 0.977371 0.748047 1.02021 0.780835 0.707107 0.382683 0.748047 0.40484 0.382683 1.22465e-16 0.40484 1.29426e-16 0.748047 0.40484 0.780835 0.422585 0.40484 1.29426e-16 0.422585 1.35093e-16 1.10427 1.02021 1.14107 1.05421 1.02021 0.780835 1.05421 0.806856 1.14107 1.05421 1.16909 1.08009 1.05421 0.806856 1.08009 0.826668 0.780835 0.422585 0.806856 0.436667 0.422585 1.35093e-16 0.436667 1.39599e-16 0.806856 0.436667 0.826668 0.44739 0.436667 1.39599e-16 0.44739 1.43063e-16 0 0.44739 0 0.45532 0.44739 0.826668 0.45532 0.841322 0 0.45532 0 0.460475 0.45532 0.841322 0.460475 0.850847 0.826668 1.08009 0.841322 1.09924 1.08009 1.16909 1.09924 1.18981 0.841322 1.09924 0.850847 1.11169 1.09924 1.18981 1.11169 1.20328 0 0.460475 0 0.463582 0.460475 0.850847 0.463582 0.856587 0 0.463582 0 0.46426 0.463582 0.856587 0.46426 0.85784 0.850847 1.11169 0.856587 1.11919 1.11169 1.20328 1.11919 1.2114 0.856587 1.11919 0.85784 1.12082 1.11919 1.2114 1.12082 1.21317 1.16909 1.08009 1.18981 1.09924 1.08009 0.826668 1.09924 0.841322 1.18981 1.09924 1.20328 1.11169 1.09924 0.841322 1.11169 0.850847 0.826668 0.44739 0.841322 0.45532 0.44739 1.43063e-16 0.45532 1.45595e-16 0.841322 0.45532 0.850847 0.460475 0.45532 1.45595e-16 0.460475 1.47295e-16 1.20328 1.11169 1.2114 1.11919 1.11169 0.850847 1.11919 0.856587 1.2114 1.11919 1.21317 1.12082 1.11919 0.856587 1.12082 0.85784 0.850847 0.460475 0.856587 0.463582 0.460475 1.47295e-16 0.463582 1.48255e-16 0.856587 0.463582 0.85784 0.46426 0.463582 1.48255e-16 0.46426 1.48557e-16 
SCALARS exact_solution double 1
LOOKUP_TABLE default
0 0.382683 0 0.404435 0.382683 0.707107 0.404435 0.747299 0 0.404435 0 0.422146 0.404435 0.747299 0.422146 0.780024 0.707107 0.92388 0.747299 0.976393 0.92388 1 0.976393 1.05684 0.747299 0.976393 0.780024 1.01915 0.976393 1.05684 1.01915 1.10312 0 0.422146 0 0.436227 0.422146 0.780024 0.436227 0.806042 0 0.436227 0 0.447051 0.436227 0.806042 0.447051 0.826043 0.780024 1.01915 0.806042 1.05314 1.01915 1.10312 1.05314 1.13991 0.806042 1.05314 0.826043 1.07928 1.05314 1.13991 1.07928 1.1682 1 0.92388 1.05684 0.976393 0.92388 0.707107 0.976393 0.747299 1.05684 0.976393 1.10312 1.01915 0.976393 0.747299 1.01915 0.780024 0.707107 0.382683 0.747299 0.404435 0.382683 1.22465e-16 0.404435 1.29426e-16 0.747299 0.404435 0.780024 0.422146 0.404435 1.29426e-16 0.422146 1.35093e-16 1.10312 1.01915 1.13991 1.05314 1.01915 0.780024 1.05314 0.806042 1.13991 1.05314 1.1682 1.07928 1.05314 0.806042 1.07928 0.826043 0.780024 0.422146 0.806042 0.436227 0.422146 1.35093e-16 0.436227 1.39599e-16 0.806042 0.436227 0.826043 0.447051 0.436227 1.39599e-16 0.447051 1.43063e-16 0 0.447051 0 0.454963 0.447051 0.826043 0.454963 0.840662 0 0.454963 0 0.460275 0.454963 0.840662 0.460275 0.850477 0.826043 1.07928 0.840662 1.09838 1.07928 1.1682 1.09838 1.18888 0.840662 1.09838 0.850477 1.1112 1.09838 1.18888 1.1112 1.20276 0 0.460275 0 0.463273 0.460275 0.850477 0.463273 0.856017 0 0.463273 0 0.464218 0.463273 0.856017 0.464218 0.857764 0.850477 1.1112 0.856017 1.11844 1.1112 1.20276 1.11844 1.21059 0.856017 1.11844 0.857764 1.12072 1.11844 1.21059 1.12072 1.21306 1.1682 1.07928 1.18888 1.09838 1.07928 0.826043 1.09838 0.840662 1.18888 1.09838 1.20276 1.1112 1.09838 0.840662 1.1112 0.850477 0.826043 0.447051 0.840662 0.454963 0.447051 1.43063e-16 0.454963 1.45595e-16 0.840662 0.454963 0.850477 0.460275 0.454963 1.45595e-16 0.460275 1.47295e-16 1.20276 1.1112 1.21059 1.11844 1.1112 0.850477 1.11844 0.856017 1.21059 1.11844 1.21306 1.12072 1.11844 0.856017 1.12072 0.857764 0.850477 0.460275 0.856017 0.463273 0.460275 1.47295e-16 0.463273 1.48255e-16 0.856017 0.463273 0.857764 0.464218 0.463273 1.48255e-16 0.464218 1.48557e-16 
