# vtk DataFile Version 3.0
#This file was generated by the deal.II library on 2026/6/24 at 22:41:50
ASCII
DATASET UNSTRUCTURED_GRID

POINTS 512 double
0 0 0
0.25 0 0
0 0.25 0
0.25 0.25 0
0 0 0.25
0.25 0 0.25
0 0.25 0.25
0.25 0.25 0.25
0.25 0 0
0.5 0 0
0.25 0.25 0
0.5 0.25 0
0.25 0 0.25
0.5 0 0.25
0.25 0.25 0.25
0.5 0.25 0.25
0 0.25 0
0.25 0.25 0
0 0.5 0
0.25 0.5 0
0 0.25 0.25
0.25 0.25 0.25
0 0.5 0.25
0.25 0.5 0.25
0.25 0.25 0
0.5 0.25 0
0.25 0.5 0
0.5 0.5 0
0.25 0.25 0.25
0.5 0.25 0.25
0.25 0.5 0.25
0.5 0.5 0.25
0 0 0.25
0.25 0 0.25
0 0.25 0.25
0.25 0.25 0.25
0 0 0.5
0.25 0 0.5
0 0.25 0.5
0.25 0.25 0.5
0.25 0 0.25
0.5 0 0.25
0.25 0.25 0.25
0.5 0.25 0.25
0.25 0 0.5
0.5 0 0.5
0.25 0.25 0.5
0.5 0.25 0.5
0 0.25 0.25
0.25 0.25 0.25
0 0.5 0.25
0.25 0.5 0.25
0 0.25 0.5
0.25 0.25 0.5
0 0.5 0.5
0.25 0.5 0.5
0.25 0.25 0.25
0.5 0.25 0.25
0.25 0.5 0.25
0.5 0.5 0.25
0.25 0.25 0.5
0.5 0.25 0.5
0.25 0.5 0.5
0.5 0.5 0.5
0.5 0 0
0.75 0 0
0.5 0.25 0
0.75 0.25 0
0.5 0 0.25
0.75 0 0.25
0.5 0.25 0.25
0.75 0.25 0.25
0.75 0 0
1 0 0
0.75 0.25 0
1 0.25 0
0.75 0 0.25
1 0 0.25
0.75 0.25 0.25
1 0.25 0.25
0.5 0.25 0
0.75 0.25 0
0.5 0.5 0
0.75 0.5 0
0.5 0.25 0.25
0.75 0.25 0.25
0.5 0.5 0.25
0.75 0.5 0.25
0.75 0.25 0
1 0.25 0
0.75 0.5 0
1 0.5 0
0.75 0.25 0.25
1 0.25 0.25
0.75 0.5 0.25
1 0.5 0.25
0.5 0 0.25
0.75 0 0.25
0.5 0.25 0.25
0.75 0.25 0.25
0.5 0 0.5
0.75 0 0.5
0.5 0.25 0.5
0.75 0.25 0.5
0.75 0 0.25
1 0 0.25
0.75 0.25 0.25
1 0.25 0.25
0.75 0 0.5
1 0 0.5
0.75 0.25 0.5
1 0.25 0.5
0.5 0.25 0.25
0.75 0.25 0.25
0.5 0.5 0.25
0.75 0.5 0.25
0.5 0.25 0.5
0.75 0.25 0.5
0.5 0.5 0.5
0.75 0.5 0.5
0.75 0.25 0.25
1 0.25 0.25
0.75 0.5 0.25
1 0.5 0.25
0.75 0.25 0.5
1 0.25 0.5
0.75 0.5 0.5
1 0.5 0.5
0 0.5 0
0.25 0.5 0
0 0.75 0
0.25 0.75 0
0 0.5 0.25
0.25 0.5 0.25
0 0.75 0.25
0.25 0.75 0.25
0.25 0.5 0
0.5 0.5 0
0.25 0.75 0
0.5 0.75 0
0.25 0.5 0.25
0.5 0.5 0.25
0.25 0.75 0.25
0.5 0.75 0.25
0 0.75 0
0.25 0.75 0
0 1 0
0.25 1 0
0 0.75 0.25
0.25 0.75 0.25
0 1 0.25
0.25 1 0.25
0.25 0.75 0
0.5 0.75 0
0.25 1 0
0.5 1 0
0.25 0.75 0.25
0.5 0.75 0.25
0.25 1 0.25
0.5 1 0.25
0 0.5 0.25
0.25 0.5 0.25
0 0.75 0.25
0.25 0.75 0.25
0 0.5 0.5
0.25 0.5 0.5
0 0.75 0.5
0.25 0.75 0.5
0.25 0.5 0.25
0.5 0.5 0.25
0.25 0.75 0.25
0.5 0.75 0.25
0.25 0.5 0.5
0.5 0.5 0.5
0.25 0.75 0.5
0.5 0.75 0.5
0 0.75 0.25
0.25 0.75 0.25
0 1 0.25
0.25 1 0.25
0 0.75 0.5
0.25 0.75 0.5
0 1 0.5
0.25 1 0.5
0.25 0.75 0.25
0.5 0.75 0.25
0.25 1 0.25
0.5 1 0.25
0.25 0.75 0.5
0.5 0.75 0.5
0.25 1 0.5
0.5 1 0.5
0.5 0.5 0
0.75 0.5 0
0.5 0.75 0
0.75 0.75 0
0.5 0.5 0.25
0.75 0.5 0.25
0.5 0.75 0.25
0.75 0.75 0.25
0.75 0.5 0
1 0.5 0
0.75 0.75 0
1 0.75 0
0.75 0.5 0.25
1 0.5 0.25
0.75 0.75 0.25
1 0.75 0.25
0.5 0.75 0
0.75 0.75 0
0.5 1 0
0.75 1 0
0.5 0.75 0.25
0.75 0.75 0.25
0.5 1 0.25
0.75 1 0.25
0.75 0.75 0
1 0.75 0
0.75 1 0
1 1 0
0.75 0.75 0.25
1 0.75 0.25
0.75 1 0.25
1 1 0.25
0.5 0.5 0.25
0.75 0.5 0.25
0.5 0.75 0.25
0.75 0.75 0.25
0.5 0.5 0.5
0.75 0.5 0.5
0.5 0.75 0.5
0.75 0.75 0.5
0.75 0.5 0.25
1 0.5 0.25
0.75 0.75 0.25
1 0.75 0.25
0.75 0.5 0.5
1 0.5 0.5
0.75 0.75 0.5
1 0.75 0.5
0.5 0.75 0.25
0.75 0.75 0.25
0.5 1 0.25
0.75 1 0.25
0.5 0.75 0.5
0.75 0.75 0.5
0.5 1 0.5
0.75 1 0.5
0.75 0.75 0.25
1 0.75 0.25
0.75 1 0.25
1 1 0.25
0.75 0.75 0.5
1 0.75 0.5
0.75 1 0.5
1 1 0.5
0 0 0.5
0.25 0 0.5
0 0.25 0.5
0.25 0.25 0.5
0 0 0.75
0.25 0 0.75
0 0.25 0.75
0.25 0.25 0.75
0.25 0 0.5
0.5 0 0.5
0.25 0.25 0.5
0.5 0.25 0.5
0.25 0 0.75
0.5 0 0.75
0.25 0.25 0.75
0.5 0.25 0.75
0 0.25 0.5
0.25 0.25 0.5
0 0.5 0.5
0.25 0.5 0.5
0 0.25 0.75
0.25 0.25 0.75
0 0.5 0.75
0.25 0.5 0.75
0.25 0.25 0.5
0.5 0.25 0.5
0.25 0.5 0.5
0.5 0.5 0.5
0.25 0.25 0.75
0.5 0.25 0.75
0.25 0.5 0.75
0.5 0.5 0.75
0 0 0.75
0.25 0 0.75
0 0.25 0.75
0.25 0.25 0.75
0 0 1
0.25 0 1
0 0.25 1
0.25 0.25 1
0.25 0 0.75
0.5 0 0.75
0.25 0.25 0.75
0.5 0.25 0.75
0.25 0 1
0.5 0 1
0.25 0.25 1
0.5 0.25 1
0 0.25 0.75
0.25 0.25 0.75
0 0.5 0.75
0.25 0.5 0.75
0 0.25 1
0.25 0.25 1
0 0.5 1
0.25 0.5 1
0.25 0.25 0.75
0.5 0.25 0.75
0.25 0.5 0.75
0.5 0.5 0.75
0.25 0.25 1
0.5 0.25 1
0.25 0.5 1
0.5 0.5 1
0.5 0 0.5
0.75 0 0.5
0.5 0.25 0.5
0.75 0.25 0.5
0.5 0 0.75
0.75 0 0.75
0.5 0.25 0.75
0.75 0.25 0.75
0.75 0 0.5
1 0 0.5
0.75 0.25 0.5
1 0.25 0.5
0.75 0 0.75
1 0 0.75
0.75 0.25 0.75
1 0.25 0.75
0.5 0.25 0.5
0.75 0.25 0.5
0.5 0.5 0.5
0.75 0.5 0.5
0.5 0.25 0.75
0.75 0.25 0.75
0.5 0.5 0.75
0.75 0.5 0.75
0.75 0.25 0.5
1 0.25 0.5
0.75 0.5 0.5
1 0.5 0.5
0.75 0.25 0.75
1 0.25 0.75
0.75 0.5 0.75
1 0.5 0.75
0.5 0 0.75
0.75 0 0.75
0.5 0.25 0.75
0.75 0.25 0.75
0.5 0 1
0.75 0 1
0.5 0.25 1
0.75 0.25 1
0.75 0 0.75
1 0 0.75
0.75 0.25 0.75
1 0.25 0.75
0.75 0 1
1 0 1
0.75 0.25 1
1 0.25 1
0.5 0.25 0.75
0.75 0.25 0.75
0.5 0.5 0.75
0.75 0.5 0.75
0.5 0.25 1
0.75 0.25 1
0.5 0.5 1
0.75 0.5 1
0.75 0.25 0.75
1 0.25 0.75
0.75 0.5 0.75
1 0.5 0.75
0.75 0.25 1
1 0.25 1
0.75 0.5 1
1 0.5 1
0 0.5 0.5
0.25 0.5 0.5
0 0.75 0.5
0.25 0.75 0.5
0 0.5 0.75
0.25 0.5 0.75
0 0.75 0.75
0.25 0.75 0.75
0.25 0.5 0.5
0.5 0.5 0.5
0.25 0.75 0.5
0.5 0.75 0.5
0.25 0.5 0.75
0.5 0.5 0.75
0.25 0.75 0.75
0.5 0.75 0.75
0 0.75 0.5
0.25 0.75 0.5
0 1 0.5
0.25 1 0.5
0 0.75 0.75
0.25 0.75 0.75
0 1 0.75
0.25 1 0.75
0.25 0.75 0.5
0.5 0.75 0.5
0.25 1 0.5
0.5 1 0.5
0.25 0.75 0.75
0.5 0.75 0.75
0.25 1 0.75
0.5 1 0.75
0 0.5 0.75
0.25 0.5 0.75
0 0.75 0.75
0.25 0.75 0.75
0 0.5 1
0.25 0.5 1
0 0.75 1
0.25 0.75 1
0.25 0.5 0.75
0.5 0.5 0.75
0.25 0.75 0.75
0.5 0.75 0.75
0.25 0.5 1
0.5 0.5 1
0.25 0.75 1
0.5 0.75 1
0 0.75 0.75
0.25 0.75 0.75
0 1 0.75
0.25 1 0.75
0 0.75 1
0.25 0.75 1
0 1 1
0.25 1 1
0.25 0.75 0.75
0.5 0.75 0.75
0.25 1 0.75
0.5 1 0.75
0.25 0.75 1
0.5 0.75 1
0.25 1 1
0.5 1 1
0.5 0.5 0.5
0.75 0.5 0.5
0.5 0.75 0.5
0.75 0.75 0.5
0.5 0.5 0.75
0.75 0.5 0.75
0.5 0.75 0.75
0.75 0.75 0.75
0.75 0.5 0.5
1 0.5 0.5
0.75 0.75 0.5
1 0.75 0.5
0.75 0.5 0.75
1 0.5 0.75
0.75 0.75 0.75
1 0.75 0.75
0.5 0.75 0.5
0.75 0.75 0.5
0.5 1 0.5
0.75 1 0.5
0.5 0.75 0.75
0.75 0.75 0.75
0.5 1 0.75
0.75 1 0.75
0.75 0.75 0.5
1 0.75 0.5
0.75 1 0.5
1 1 0.5
0.75 0.75 0.75
1 0.75 0.75
0.75 1 0.75
1 1 0.75
0.5 0.5 0.75
0.75 0.5 0.75
0.5 0.75 0.75
0.75 0.75 0.75
0.5 0.5 1
0.75 0.5 1
0.5 0.75 1
0.75 0.75 1
0.75 0.5 0.75
1 0.5 0.75
0.75 0.75 0.75
1 0.75 0.75
0.75 0.5 1
1 0.5 1
0.75 0.75 1
1 0.75 1
0.5 0.75 0.75
0.75 0.75 0.75
0.5 1 0.75
0.75 1 0.75
0.5 0.75 1
0.75 0.75 1
0.5 1 1
0.75 1 1
0.75 0.75 0.75
1 0.75 0.75
0.75 1 0.75
1 1 0.75
0.75 0.75 1
1 0.75 1
0.75 1 1
1 1 1

CELLS 64 576
8	0	1	3	2	4	5	7	6
8	8	9	11	10	12	13	15	14
8	16	17	19	18	20	21	23	22
8	24	25	27	26	28	29	31	30
8	32	33	35	34	36	37	39	38
8	40	41	43	42	44	45	47	46
8	48	49	51	50	52	53	55	54
8	56	57	59	58	60	61	63	62
8	64	65	67	66	68	69	71	70
8	72	73	75	74	76	77	79	78
8	80	81	83	82	84	85	87	86
8	88	89	91	90	92	93	95	94
8	96	97	99	98	100	101	103	102
8	104	105	107	106	108	109	111	110
8	112	113	115	114	116	117	119	118
8	120	121	123	122	124	125	127	126
8	128	129	131	130	132	133	135	134
8	136	137	139	138	140	141	143	142
8	144	145	147	146	148	149	151	150
8	152	153	155	154	156	157	159	158
8	160	161	163	162	164	165	167	166
8	168	169	171	170	172	173	175	174
8	176	177	179	178	180	181	183	182
8	184	185	187	186	188	189	191	190
8	192	193	195	194	196	197	199	198
8	200	201	203	202	204	205	207	206
8	208	209	211	210	212	213	215	214
8	216	217	219	218	220	221	223	222
8	224	225	227	226	228	229	231	230
8	232	233	235	234	236	237	239	238
8	240	241	243	242	244	245	247	246
8	248	249	251	250	252	253	255	254
8	256	257	259	258	260	261	263	262
8	264	265	267	266	268	269	271	270
8	272	273	275	274	276	277	279	278
8	280	281	283	282	284	285	287	286
8	288	289	291	290	292	293	295	294
8	296	297	299	298	300	301	303	302
8	304	305	307	306	308	309	311	310
8	312	313	315	314	316	317	319	318
8	320	321	323	322	324	325	327	326
8	328	329	331	330	332	333	335	334
8	336	337	339	338	340	341	343	342
8	344	345	347	346	348	349	351	350
8	352	353	355	354	356	357	359	358
8	360	361	363	362	364	365	367	366
8	368	369	371	370	372	373	375	374
8	376	377	379	378	380	381	383	382
8	384	385	387	386	388	389	391	390
8	392	393	395	394	396	397	399	398
8	400	401	403	402	404	405	407	406
8	408	409	411	410	412	413	415	414
8	416	417	419	418	420	421	423	422
8	424	425	427	426	428	429	431	430
8	432	433	435	434	436	437	439	438
8	440	441	443	442	444	445	447	446
8	448	449	451	450	452	453	455	454
8	456	457	459	458	460	461	463	462
8	464	465	467	466	468	469	471	470
8	472	473	475	474	476	477	479	478
8	480	481	483	482	484	485	487	486
8	488	489	491	490	492	493	495	494
8	496	497	499	498	500	501	503	502
8	504	505	507	506	508	509	511	510

CELL_TYPES 64
 12 12 12 12 12 12 12 12 12 12 12 12 12 12 12 12 12 12 12 12 12 12 12 12 12 12 12 12 12 12 12 12 12 12 12 12 12 12 12 12 12 12 12 12 12 12 12 12 12 12 12 12 12 12 12 12 12 12 12 12 12 12 12 12
POINT_DATA 512
SCALARS solution double 1
LOOKUP_TABLE default
0.551724 0.666667 0.615385 0.761905 0.551724 0.615385 0.666667 0.755749 0.666667 0.761905 0.761905 0.888889 0.615385 0.64 0.755749 0.793227 0.615385 0.761905 0.64 0.8 0.666667 0.755749 0.761905 0.892805 0.761905 0.888889 0.8 0.941176 0.755749 0.793227 0.892805 0.943927 0.551724 0.615385 0.666667 0.755749 0.761905 0.8 0.888889 0.957334 0.615385 0.64 0.755749 0.793227 0.8 0.761905 0.957334 0.894871 0.666667 0.755749 0.761905 0.892805 0.888889 0.957334 0.941176 1.01207 0.755749 0.793227 0.892805 0.943927 0.957334 0.894871 1.01207 0.943625 0.761905 0.8 0.888889 0.941176 0.64 0.615385 0.793227 0.75569 0.8 0.761905 0.941176 0.888889 0.615385 0.551724 0.75569 0.666667 0.888889 0.941176 0.941176 1 0.793227 0.75569 0.943927 0.887473 0.941176 0.888889 1 0.941176 0.75569 0.666667 0.887473 0.761905 0.64 0.615385 0.793227 0.75569 0.761905 0.666667 0.894871 0.757376 0.615385 0.551724 0.75569 0.666667 0.666667 0.551724 0.757376 0.615385 0.793227 0.75569 0.943927 0.887473 0.894871 0.757376 0.943625 0.79311 0.75569 0.666667 0.887473 0.761905 0.757376 0.615385 0.79311 0.64 0.64 0.8 0.615385 0.761905 0.761905 0.892805 0.8 0.955182 0.8 0.941176 0.761905 0.888889 0.892805 0.943927 0.955182 1.01204 0.615385 0.761905 0.551724 0.666667 0.8 0.955182 0.761905 0.888889 0.761905 0.888889 0.666667 0.761905 0.955182 1.01204 0.888889 0.941176 0.761905 0.892805 0.8 0.955182 0.941176 1.01207 0.888889 0.942739 0.892805 0.943927 0.955182 1.01204 1.01207 0.943625 0.942739 0.884644 0.8 0.955182 0.761905 0.888889 0.888889 0.942739 0.761905 0.8 0.955182 1.01204 0.888889 0.941176 0.942739 0.884644 0.8 0.761905 0.941176 1 0.888889 0.941176 0.943927 0.887473 1.01204 0.945265 1 0.941176 0.941176 0.888889 0.887473 0.761905 0.945265 0.8 0.888889 0.941176 0.761905 0.8 1.01204 0.945265 0.941176 0.888889 0.941176 0.888889 0.8 0.761905 0.945265 0.8 0.888889 0.761905 0.943927 0.887473 1.01204 0.945265 0.943625 0.79311 0.884644 0.753771 0.887473 0.761905 0.945265 0.8 0.79311 0.64 0.753771 0.615385 1.01204 0.945265 0.941176 0.888889 0.884644 0.753771 0.761905 0.666667 0.945265 0.8 0.888889 0.761905 0.753771 0.615385 0.666667 0.551724 0.761905 0.8 0.888889 0.957334 0.761905 0.888889 0.8 0.940287 0.8 0.761905 0.957334 0.894871 0.888889 0.941176 0.940287 1.01017 0.888889 0.957334 0.941176 1.01207 0.8 0.940287 0.761905 0.882692 0.957334 0.894871 1.01207 0.943625 0.940287 1.01017 0.882692 0.943662 0.761905 0.888889 0.8 0.940287 0.551724 0.666667 0.615385 0.759564 0.888889 0.941176 0.940287 1.01017 0.666667 0.761905 0.759564 0.887531 0.8 0.940287 0.761905 0.882692 0.615385 0.759564 0.64 0.801437 0.940287 1.01017 0.882692 0.943662 0.759564 0.887531 0.801437 0.943647 0.761905 0.666667 0.894871 0.757376 0.941176 0.888889 1.01017 0.956308 0.666667 0.551724 0.757376 0.615385 0.888889 0.761905 0.956308 0.8 0.894871 0.757376 0.943625 0.79311 1.01017 0.956308 0.943662 0.896783 0.757376 0.615385 0.79311 0.64 0.956308 0.8 0.896783 0.761905 0.941176 0.888889 1.01017 0.956308 0.761905 0.8 0.887531 0.942806 0.888889 0.761905 0.956308 0.8 0.8 0.761905 0.942806 0.888889 1.01017 0.956308 0.943662 0.896783 0.887531 0.942806 0.943647 1.00391 0.956308 0.8 0.896783 0.761905 0.942806 0.888889 1.00391 0.941176 0.941176 1.01207 0.888889 0.942739 0.761905 0.882692 0.666667 0.753031 1.01207 0.943625 0.942739 0.884644 0.882692 0.943662 0.753031 0.795147 0.888889 0.942739 0.761905 0.8 0.666667 0.753031 0.551724 0.615385 0.942739 0.884644 0.8 0.761905 0.753031 0.795147 0.615385 0.64 0.761905 0.882692 0.666667 0.753031 0.64 0.801437 0.615385 0.766048 0.882692 0.943662 0.753031 0.795147 0.801437 0.943647 0.766048 0.891909 0.666667 0.753031 0.551724 0.615385 0.615385 0.766048 0.551724 0.666667 0.753031 0.795147 0.615385 0.64 0.766048 0.891909 0.666667 0.761905 0.943625 0.79311 0.884644 0.753771 0.943662 0.896783 0.795147 0.761708 0.79311 0.64 0.753771 0.615385 0.896783 0.761905 0.761708 0.666667 0.884644 0.753771 0.761905 0.666667 0.795147 0.761708 0.64 0.615385 0.753771 0.615385 0.666667 0.551724 0.761708 0.666667 0.615385 0.551724 0.943662 0.896783 0.795147 0.761708 0.943647 1.00391 0.891909 0.942795 0.896783 0.761905 0.761708 0.666667 1.00391 0.941176 0.942795 0.888889 0.795147 0.761708 0.64 0.615385 0.891909 0.942795 0.761905 0.8 0.761708 0.666667 0.615385 0.551724 0.942795 0.888889 0.8 0.761905 
SCALARS exact_solution double 1
LOOKUP_TABLE default
0.551724 0.666667 0.615385 0.761905 0.551724 0.615385 0.666667 0.761905 0.666667 0.761905 0.761905 0.888889 0.615385 0.64 0.761905 0.8 0.615385 0.761905 0.64 0.8 0.666667 0.761905 0.761905 0.888889 0.761905 0.888889 0.8 0.941176 0.761905 0.8 0.888889 0.941176 0.551724 0.615385 0.666667 0.761905 0.761905 0.8 0.888889 0.941176 0.615385 0.64 0.761905 0.8 0.8 0.761905 0.941176 0.888889 0.666667 0.761905 0.761905 0.888889 0.888889 0.941176 0.941176 1 0.761905 0.8 0.888889 0.941176 0.941176 0.888889 1 0.941176 0.761905 0.8 0.888889 0.941176 0.64 0.615385 0.8 0.761905 0.8 0.761905 0.941176 0.888889 0.615385 0.551724 0.761905 0.666667 0.888889 0.941176 0.941176 1 0.8 0.761905 0.941176 0.888889 0.941176 0.888889 1 0.941176 0.761905 0.666667 0.888889 0.761905 0.64 0.615385 0.8 0.761905 0.761905 0.666667 0.888889 0.761905 0.615385 0.551724 0.761905 0.666667 0.666667 0.551724 0.761905 0.615385 0.8 0.761905 0.941176 0.888889 0.888889 0.761905 0.941176 0.8 0.761905 0.666667 0.888889 0.761905 0.761905 0.615385 0.8 0.64 0.64 0.8 0.615385 0.761905 0.761905 0.888889 0.8 0.941176 0.8 0.941176 0.761905 0.888889 0.888889 0.941176 0.941176 1 0.615385 0.761905 0.551724 0.666667 0.8 0.941176 0.761905 0.888889 0.761905 0.888889 0.666667 0.761905 0.941176 1 0.888889 0.941176 0.761905 0.888889 0.8 0.941176 0.941176 1 0.888889 0.941176 0.888889 0.941176 0.941176 1 1 0.941176 0.941176 0.888889 0.8 0.941176 0.761905 0.888889 0.888889 0.941176 0.761905 0.8 0.941176 1 0.888889 0.941176 0.941176 0.888889 0.8 0.761905 0.941176 1 0.888889 0.941176 0.941176 0.888889 1 0.941176 1 0.941176 0.941176 0.888889 0.888889 0.761905 0.941176 0.8 0.888889 0.941176 0.761905 0.8 1 0.941176 0.941176 0.888889 0.941176 0.888889 0.8 0.761905 0.941176 0.8 0.888889 0.761905 0.941176 0.888889 1 0.941176 0.941176 0.8 0.888889 0.761905 0.888889 0.761905 0.941176 0.8 0.8 0.64 0.761905 0.615385 1 0.941176 0.941176 0.888889 0.888889 0.761905 0.761905 0.666667 0.941176 0.8 0.888889 0.761905 0.761905 0.615385 0.666667 0.551724 0.761905 0.8 0.888889 0.941176 0.761905 0.888889 0.8 0.941176 0.8 0.761905 0.941176 0.888889 0.888889 0.941176 0.941176 1 0.888889 0.941176 0.941176 1 0.8 0.941176 0.761905 0.888889 0.941176 0.888889 1 0.941176 0.941176 1 0.888889 0.941176 0.761905 0.888889 0.8 0.941176 0.551724 0.666667 0.615385 0.761905 0.888889 0.941176 0.941176 1 0.666667 0.761905 0.761905 0.888889 0.8 0.941176 0.761905 0.888889 0.615385 0.761905 0.64 0.8 0.941176 1 0.888889 0.941176 0.761905 0.888889 0.8 0.941176 0.761905 0.666667 0.888889 0.761905 0.941176 0.888889 1 0.941176 0.666667 0.551724 0.761905 0.615385 0.888889 0.761905 0.941176 0.8 0.888889 0.761905 0.941176 0.8 1 0.941176 0.941176 0.888889 0.761905 0.615385 0.8 0.64 0.941176 0.8 0.888889 0.761905 0.941176 0.888889 1 0.941176 0.761905 0.8 0.888889 0.941176 0.888889 0.761905 0.941176 0.8 0.8 0.761905 0.941176 0.888889 1 0.941176 0.941176 0.888889 0.888889 0.941176 0.941176 1 0.941176 0.8 0.888889 0.761905 0.941176 0.888889 1 0.941176 0.941176 1 0.888889 0.941176 0.761905 0.888889 0.666667 0.761905 1 0.941176 0.941176 0.888889 0.888889 0.941176 0.761905 0.8 0.888889 0.941176 0.761905 0.8 0.666667 0.761905 0.551724 0.615385 0.941176 0.888889 0.8 0.761905 0.761905 0.8 0.615385 0.64 0.761905 0.888889 0.666667 0.761905 0.64 0.8 0.615385 0.761905 0.888889 0.941176 0.761905 0.8 0.8 0.941176 0.761905 0.888889 0.666667 0.761905 0.551724 0.615385 0.615385 0.761905 0.551724 0.666667 0.761905 0.8 0.615385 0.64 0.761905 0.888889 0.666667 0.761905 0.941176 0.8 0.888889 0.761905 0.941176 0.888889 0.8 0.761905 0.8 0.64 0.761905 0.615385 0.888889 0.761905 0.761905 0.666667 0.888889 0.761905 0.761905 0.666667 0.8 0.761905 0.64 0.615385 0.761905 0.615385 0.666667 0.551724 0.761905 0.666667 0.615385 0.551724 0.941176 0.888889 0.8 0.761905 0.941176 1 0.888889 0.941176 0.888889 0.761905 0.761905 0.666667 1 0.941176 0.941176 0.888889 0.8 0.761905 0.64 0.615385 0.888889 0.941176 0.761905 0.8 0.761905 0.666667 0.615385 0.551724 0.941176 0.888889 0.8 0.761905 
