# vtk DataFile Version 3.0
#This file was generated by the deal.II library on 2026/6/24 at 22:41:49
ASCII
DATASET UNSTRUCTURED_GRID

POINTS 8 double
0 0 0
1 0 0
0 1 0
1 1 0
0 0 1
1 0 1
0 1 1
1 1 1

CELLS 1 9
8	0	1	3	2	4	5	7	6

CELL_TYPES 1
 12
POINT_DATA 8
SCALARS solution double 1
LOOKUP_TABLE default
0.551724 0.761905 0.551724 0.761905 0.551724 0.761905 0.551724 0.761905 
SCALARS exact_solution double 1
LOOKUP_TABLE default
0.551724 0.761905 0.551724 0.761905 0.551724 0.761905 0.551724 0.761905 
