# vtk DataFile Version 3.0
#This file was generated by the deal.II library on 2026/6/24 at 23:33:29
ASCII
DATASET UNSTRUCTURED_GRID

POINTS 1024 double
0 0 0
0.0625 0 0
0 0.0625 0
0.0625 0.0625 0
0.0625 0 0
0.125 0 0
0.0625 0.0625 0
0.125 0.0625 0
0 0.0625 0
0.0625 0.0625 0
0 0.125 0
0.0625 0.125 0
0.0625 0.0625 0
0.125 0.0625 0
0.0625 0.125 0
0.125 0.125 0
0.125 0 0
0.1875 0 0
0.125 0.0625 0
0.1875 0.0625 0
0.1875 0 0
0.25 0 0
0.1875 0.0625 0
0.25 0.0625 0
0.125 0.0625 0
0.1875 0.0625 0
0.125 0.125 0
0.1875 0.125 0
0.1875 0.0625 0
0.25 0.0625 0
0.1875 0.125 0
0.25 0.125 0
0 0.125 0
0.0625 0.125 0
0 0.1875 0
0.0625 0.1875 0
0.0625 0.125 0
0.125 0.125 0
0.0625 0.1875 0
0.125 0.1875 0
0 0.1875 0
0.0625 0.1875 0
0 0.25 0
0.0625 0.25 0
0.0625 0.1875 0
0.125 0.1875 0
0.0625 0.25 0
0.125 0.25 0
0.125 0.125 0
0.1875 0.125 0
0.125 0.1875 0
0.1875 0.1875 0
0.1875 0.125 0
0.25 0.125 0
0.1875 0.1875 0
0.25 0.1875 0
0.125 0.1875 0
0.1875 0.1875 0
0.125 0.25 0
0.1875 0.25 0
0.1875 0.1875 0
0.25 0.1875 0
0.1875 0.25 0
0.25 0.25 0
0.25 0 0
0.3125 0 0
0.25 0.0625 0
0.3125 0.0625 0
0.3125 0 0
0.375 0 0
0.3125 0.0625 0
0.375 0.0625 0
0.25 0.0625 0
0.3125 0.0625 0
0.25 0.125 0
0.3125 0.125 0
0.3125 0.0625 0
0.375 0.0625 0
0.3125 0.125 0
0.375 0.125 0
0.375 0 0
0.4375 0 0
0.375 0.0625 0
0.4375 0.0625 0
0.4375 0 0
0.5 0 0
0.4375 0.0625 0
0.5 0.0625 0
0.375 0.0625 0
0.4375 0.0625 0
0.375 0.125 0
0.4375 0.125 0
0.4375 0.0625 0
0.5 0.0625 0
0.4375 0.125 0
0.5 0.125 0
0.25 0.125 0
0.3125 0.125 0
0.25 0.1875 0
0.3125 0.1875 0
0.3125 0.125 0
0.375 0.125 0
0.3125 0.1875 0
0.375 0.1875 0
0.25 0.1875 0
0.3125 0.1875 0
0.25 0.25 0
0.3125 0.25 0
0.3125 0.1875 0
0.375 0.1875 0
0.3125 0.25 0
0.375 0.25 0
0.375 0.125 0
0.4375 0.125 0
0.375 0.1875 0
0.4375 0.1875 0
0.4375 0.125 0
0.5 0.125 0
0.4375 0.1875 0
0.5 0.1875 0
0.375 0.1875 0
0.4375 0.1875 0
0.375 0.25 0
0.4375 0.25 0
0.4375 0.1875 0
0.5 0.1875 0
0.4375 0.25 0
0.5 0.25 0
0 0.25 0
0.0625 0.25 0
0 0.3125 0
0.0625 0.3125 0
0.0625 0.25 0
0.125 0.25 0
0.0625 0.3125 0
0.125 0.3125 0
0 0.3125 0
0.0625 0.3125 0
0 0.375 0
0.0625 0.375 0
0.0625 0.3125 0
0.125 0.3125 0
0.0625 0.375 0
0.125 0.375 0
0.125 0.25 0
0.1875 0.25 0
0.125 0.3125 0
0.1875 0.3125 0
0.1875 0.25 0
0.25 0.25 0
0.1875 0.3125 0
0.25 0.3125 0
0.125 0.3125 0
0.1875 0.3125 0
0.125 0.375 0
0.1875 0.375 0
0.1875 0.3125 0
0.25 0.3125 0
0.1875 0.375 0
0.25 0.375 0
0 0.375 0
0.0625 0.375 0
0 0.4375 0
0.0625 0.4375 0
0.0625 0.375 0
0.125 0.375 0
0.0625 0.4375 0
0.125 0.4375 0
0 0.4375 0
0.0625 0.4375 0
0 0.5 0
0.0625 0.5 0
0.0625 0.4375 0
0.125 0.4375 0
0.0625 0.5 0
0.125 0.5 0
0.125 0.375 0
0.1875 0.375 0
0.125 0.4375 0
0.1875 0.4375 0
0.1875 0.375 0
0.25 0.375 0
0.1875 0.4375 0
0.25 0.4375 0
0.125 0.4375 0
0.1875 0.4375 0
0.125 0.5 0
0.1875 0.5 0
0.1875 0.4375 0
0.25 0.4375 0
0.1875 0.5 0
0.25 0.5 0
0.25 0.25 0
0.3125 0.25 0
0.25 0.3125 0
0.3125 0.3125 0
0.3125 0.25 0
0.375 0.25 0
0.3125 0.3125 0
0.375 0.3125 0
0.25 0.3125 0
0.3125 0.3125 0
0.25 0.375 0
0.3125 0.375 0
0.3125 0.3125 0
0.375 0.3125 0
0.3125 0.375 0
0.375 0.375 0
0.375 0.25 0
0.4375 0.25 0
0.375 0.3125 0
0.4375 0.3125 0
0.4375 0.25 0
0.5 0.25 0
0.4375 0.3125 0
0.5 0.3125 0
0.375 0.3125 0
0.4375 0.3125 0
0.375 0.375 0
0.4375 0.375 0
0.4375 0.3125 0
0.5 0.3125 0
0.4375 0.375 0
0.5 0.375 0
0.25 0.375 0
0.3125 0.375 0
0.25 0.4375 0
0.3125 0.4375 0
0.3125 0.375 0
0.375 0.375 0
0.3125 0.4375 0
0.375 0.4375 0
0.25 0.4375 0
0.3125 0.4375 0
0.25 0.5 0
0.3125 0.5 0
0.3125 0.4375 0
0.375 0.4375 0
0.3125 0.5 0
0.375 0.5 0
0.375 0.375 0
0.4375 0.375 0
0.375 0.4375 0
0.4375 0.4375 0
0.4375 0.375 0
0.5 0.375 0
0.4375 0.4375 0
0.5 0.4375 0
0.375 0.4375 0
0.4375 0.4375 0
0.375 0.5 0
0.4375 0.5 0
0.4375 0.4375 0
0.5 0.4375 0
0.4375 0.5 0
0.5 0.5 0
0.5 0 0
0.5625 0 0
0.5 0.0625 0
0.5625 0.0625 0
0.5625 0 0
0.625 0 0
0.5625 0.0625 0
0.625 0.0625 0
0.5 0.0625 0
0.5625 0.0625 0
0.5 0.125 0
0.5625 0.125 0
0.5625 0.0625 0
0.625 0.0625 0
0.5625 0.125 0
0.625 0.125 0
0.625 0 0
0.6875 0 0
0.625 0.0625 0
0.6875 0.0625 0
0.6875 0 0
0.75 0 0
0.6875 0.0625 0
0.75 0.0625 0
0.625 0.0625 0
0.6875 0.0625 0
0.625 0.125 0
0.6875 0.125 0
0.6875 0.0625 0
0.75 0.0625 0
0.6875 0.125 0
0.75 0.125 0
0.5 0.125 0
0.5625 0.125 0
0.5 0.1875 0
0.5625 0.1875 0
0.5625 0.125 0
0.625 0.125 0
0.5625 0.1875 0
0.625 0.1875 0
0.5 0.1875 0
0.5625 0.1875 0
0.5 0.25 0
0.5625 0.25 0
0.5625 0.1875 0
0.625 0.1875 0
0.5625 0.25 0
0.625 0.25 0
0.625 0.125 0
0.6875 0.125 0
0.625 0.1875 0
0.6875 0.1875 0
0.6875 0.125 0
0.75 0.125 0
0.6875 0.1875 0
0.75 0.1875 0
0.625 0.1875 0
0.6875 0.1875 0
0.625 0.25 0
0.6875 0.25 0
0.6875 0.1875 0
0.75 0.1875 0
0.6875 0.25 0
0.75 0.25 0
0.75 0 0
0.8125 0 0
0.75 0.0625 0
0.8125 0.0625 0
0.8125 0 0
0.875 0 0
0.8125 0.0625 0
0.875 0.0625 0
0.75 0.0625 0
0.8125 0.0625 0
0.75 0.125 0
0.8125 0.125 0
0.8125 0.0625 0
0.875 0.0625 0
0.8125 0.125 0
0.875 0.125 0
0.875 0 0
0.9375 0 0
0.875 0.0625 0
0.9375 0.0625 0
0.9375 0 0
1 0 0
0.9375 0.0625 0
1 0.0625 0
0.875 0.0625 0
0.9375 0.0625 0
0.875 0.125 0
0.9375 0.125 0
0.9375 0.0625 0
1 0.0625 0
0.9375 0.125 0
1 0.125 0
0.75 0.125 0
0.8125 0.125 0
0.75 0.1875 0
0.8125 0.1875 0
0.8125 0.125 0
0.875 0.125 0
0.8125 0.1875 0
0.875 0.1875 0
0.75 0.1875 0
0.8125 0.1875 0
0.75 0.25 0
0.8125 0.25 0
0.8125 0.1875 0
0.875 0.1875 0
0.8125 0.25 0
0.875 0.25 0
0.875 0.125 0
0.9375 0.125 0
0.875 0.1875 0
0.9375 0.1875 0
0.9375 0.125 0
1 0.125 0
0.9375 0.1875 0
1 0.1875 0
0.875 0.1875 0
0.9375 0.1875 0
0.875 0.25 0
0.9375 0.25 0
0.9375 0.1875 0
1 0.1875 0
0.9375 0.25 0
1 0.25 0
0.5 0.25 0
0.5625 0.25 0
0.5 0.3125 0
0.5625 0.3125 0
0.5625 0.25 0
0.625 0.25 0
0.5625 0.3125 0
0.625 0.3125 0
0.5 0.3125 0
0.5625 0.3125 0
0.5 0.375 0
0.5625 0.375 0
0.5625 0.3125 0
0.625 0.3125 0
0.5625 0.375 0
0.625 0.375 0
0.625 0.25 0
0.6875 0.25 0
0.625 0.3125 0
0.6875 0.3125 0
0.6875 0.25 0
0.75 0.25 0
0.6875 0.3125 0
0.75 0.3125 0
0.625 0.3125 0
0.6875 0.3125 0
0.625 0.375 0
0.6875 0.375 0
0.6875 0.3125 0
0.75 0.3125 0
0.6875 0.375 0
0.75 0.375 0
0.5 0.375 0
0.5625 0.375 0
0.5 0.4375 0
0.5625 0.4375 0
0.5625 0.375 0
0.625 0.375 0
0.5625 0.4375 0
0.625 0.4375 0
0.5 0.4375 0
0.5625 0.4375 0
0.5 0.5 0
0.5625 0.5 0
0.5625 0.4375 0
0.625 0.4375 0
0.5625 0.5 0
0.625 0.5 0
0.625 0.375 0
0.6875 0.375 0
0.625 0.4375 0
0.6875 0.4375 0
0.6875 0.375 0
0.75 0.375 0
0.6875 0.4375 0
0.75 0.4375 0
0.625 0.4375 0
0.6875 0.4375 0
0.625 0.5 0
0.6875 0.5 0
0.6875 0.4375 0
0.75 0.4375 0
0.6875 0.5 0
0.75 0.5 0
0.75 0.25 0
0.8125 0.25 0
0.75 0.3125 0
0.8125 0.3125 0
0.8125 0.25 0
0.875 0.25 0
0.8125 0.3125 0
0.875 0.3125 0
0.75 0.3125 0
0.8125 0.3125 0
0.75 0.375 0
0.8125 0.375 0
0.8125 0.3125 0
0.875 0.3125 0
0.8125 0.375 0
0.875 0.375 0
0.875 0.25 0
0.9375 0.25 0
0.875 0.3125 0
0.9375 0.3125 0
0.9375 0.25 0
1 0.25 0
0.9375 0.3125 0
1 0.3125 0
0.875 0.3125 0
0.9375 0.3125 0
0.875 0.375 0
0.9375 0.375 0
0.9375 0.3125 0
1 0.3125 0
0.9375 0.375 0
1 0.375 0
0.75 0.375 0
0.8125 0.375 0
0.75 0.4375 0
0.8125 0.4375 0
0.8125 0.375 0
0.875 0.375 0
0.8125 0.4375 0
0.875 0.4375 0
0.75 0.4375 0
0.8125 0.4375 0
0.75 0.5 0
0.8125 0.5 0
0.8125 0.4375 0
0.875 0.4375 0
0.8125 0.5 0
0.875 0.5 0
0.875 0.375 0
0.9375 0.375 0
0.875 0.4375 0
0.9375 0.4375 0
0.9375 0.375 0
1 0.375 0
0.9375 0.4375 0
1 0.4375 0
0.875 0.4375 0
0.9375 0.4375 0
0.875 0.5 0
0.9375 0.5 0
0.9375 0.4375 0
1 0.4375 0
0.9375 0.5 0
1 0.5 0
0 0.5 0
0.0625 0.5 0
0 0.5625 0
0.0625 0.5625 0
0.0625 0.5 0
0.125 0.5 0
0.0625 0.5625 0
0.125 0.5625 0
0 0.5625 0
0.0625 0.5625 0
0 0.625 0
0.0625 0.625 0
0.0625 0.5625 0
0.125 0.5625 0
0.0625 0.625 0
0.125 0.625 0
0.125 0.5 0
0.1875 0.5 0
0.125 0.5625 0
0.1875 0.5625 0
0.1875 0.5 0
0.25 0.5 0
0.1875 0.5625 0
0.25 0.5625 0
0.125 0.5625 0
0.1875 0.5625 0
0.125 0.625 0
0.1875 0.625 0
0.1875 0.5625 0
0.25 0.5625 0
0.1875 0.625 0
0.25 0.625 0
0 0.625 0
0.0625 0.625 0
0 0.6875 0
0.0625 0.6875 0
0.0625 0.625 0
0.125 0.625 0
0.0625 0.6875 0
0.125 0.6875 0
0 0.6875 0
0.0625 0.6875 0
0 0.75 0
0.0625 0.75 0
0.0625 0.6875 0
0.125 0.6875 0
0.0625 0.75 0
0.125 0.75 0
0.125 0.625 0
0.1875 0.625 0
0.125 0.6875 0
0.1875 0.6875 0
0.1875 0.625 0
0.25 0.625 0
0.1875 0.6875 0
0.25 0.6875 0
0.125 0.6875 0
0.1875 0.6875 0
0.125 0.75 0
0.1875 0.75 0
0.1875 0.6875 0
0.25 0.6875 0
0.1875 0.75 0
0.25 0.75 0
0.25 0.5 0
0.3125 0.5 0
0.25 0.5625 0
0.3125 0.5625 0
0.3125 0.5 0
0.375 0.5 0
0.3125 0.5625 0
0.375 0.5625 0
0.25 0.5625 0
0.3125 0.5625 0
0.25 0.625 0
0.3125 0.625 0
0.3125 0.5625 0
0.375 0.5625 0
0.3125 0.625 0
0.375 0.625 0
0.375 0.5 0
0.4375 0.5 0
0.375 0.5625 0
0.4375 0.5625 0
0.4375 0.5 0
0.5 0.5 0
0.4375 0.5625 0
0.5 0.5625 0
0.375 0.5625 0
0.4375 0.5625 0
0.375 0.625 0
0.4375 0.625 0
0.4375 0.5625 0
0.5 0.5625 0
0.4375 0.625 0
0.5 0.625 0
0.25 0.625 0
0.3125 0.625 0
0.25 0.6875 0
0.3125 0.6875 0
0.3125 0.625 0
0.375 0.625 0
0.3125 0.6875 0
0.375 0.6875 0
0.25 0.6875 0
0.3125 0.6875 0
0.25 0.75 0
0.3125 0.75 0
0.3125 0.6875 0
0.375 0.6875 0
0.3125 0.75 0
0.375 0.75 0
0.375 0.625 0
0.4375 0.625 0
0.375 0.6875 0
0.4375 0.6875 0
0.4375 0.625 0
0.5 0.625 0
0.4375 0.6875 0
0.5 0.6875 0
0.375 0.6875 0
0.4375 0.6875 0
0.375 0.75 0
0.4375 0.75 0
0.4375 0.6875 0
0.5 0.6875 0
0.4375 0.75 0
0.5 0.75 0
0 0.75 0
0.0625 0.75 0
0 0.8125 0
0.0625 0.8125 0
0.0625 0.75 0
0.125 0.75 0
0.0625 0.8125 0
0.125 0.8125 0
0 0.8125 0
0.0625 0.8125 0
0 0.875 0
0.0625 0.875 0
0.0625 0.8125 0
0.125 0.8125 0
0.0625 0.875 0
0.125 0.875 0
0.125 0.75 0
0.1875 0.75 0
0.125 0.8125 0
0.1875 0.8125 0
0.1875 0.75 0
0.25 0.75 0
0.1875 0.8125 0
0.25 0.8125 0
0.125 0.8125 0
0.1875 0.8125 0
0.125 0.875 0
0.1875 0.875 0
0.1875 0.8125 0
0.25 0.8125 0
0.1875 0.875 0
0.25 0.875 0
0 0.875 0
0.0625 0.875 0
0 0.9375 0
0.0625 0.9375 0
0.0625 0.875 0
0.125 0.875 0
0.0625 0.9375 0
0.125 0.9375 0
0 0.9375 0
0.0625 0.9375 0
0 1 0
0.0625 1 0
0.0625 0.9375 0
0.125 0.9375 0
0.0625 1 0
0.125 1 0
0.125 0.875 0
0.1875 0.875 0
0.125 0.9375 0
0.1875 0.9375 0
0.1875 0.875 0
0.25 0.875 0
0.1875 0.9375 0
0.25 0.9375 0
0.125 0.9375 0
0.1875 0.9375 0
0.125 1 0
0.1875 1 0
0.1875 0.9375 0
0.25 0.9375 0
0.1875 1 0
0.25 1 0
0.25 0.75 0
0.3125 0.75 0
0.25 0.8125 0
0.3125 0.8125 0
0.3125 0.75 0
0.375 0.75 0
0.3125 0.8125 0
0.375 0.8125 0
0.25 0.8125 0
0.3125 0.8125 0
0.25 0.875 0
0.3125 0.875 0
0.3125 0.8125 0
0.375 0.8125 0
0.3125 0.875 0
0.375 0.875 0
0.375 0.75 0
0.4375 0.75 0
0.375 0.8125 0
0.4375 0.8125 0
0.4375 0.75 0
0.5 0.75 0
0.4375 0.8125 0
0.5 0.8125 0
0.375 0.8125 0
0.4375 0.8125 0
0.375 0.875 0
0.4375 0.875 0
0.4375 0.8125 0
0.5 0.8125 0
0.4375 0.875 0
0.5 0.875 0
0.25 0.875 0
0.3125 0.875 0
0.25 0.9375 0
0.3125 0.9375 0
0.3125 0.875 0
0.375 0.875 0
0.3125 0.9375 0
0.375 0.9375 0
0.25 0.9375 0
0.3125 0.9375 0
0.25 1 0
0.3125 1 0
0.3125 0.9375 0
0.375 0.9375 0
0.3125 1 0
0.375 1 0
0.375 0.875 0
0.4375 0.875 0
0.375 0.9375 0
0.4375 0.9375 0
0.4375 0.875 0
0.5 0.875 0
0.4375 0.9375 0
0.5 0.9375 0
0.375 0.9375 0
0.4375 0.9375 0
0.375 1 0
0.4375 1 0
0.4375 0.9375 0
0.5 0.9375 0
0.4375 1 0
0.5 1 0
0.5 0.5 0
0.5625 0.5 0
0.5 0.5625 0
0.5625 0.5625 0
0.5625 0.5 0
0.625 0.5 0
0.5625 0.5625 0
0.625 0.5625 0
0.5 0.5625 0
0.5625 0.5625 0
0.5 0.625 0
0.5625 0.625 0
0.5625 0.5625 0
0.625 0.5625 0
0.5625 0.625 0
0.625 0.625 0
0.625 0.5 0
0.6875 0.5 0
0.625 0.5625 0
0.6875 0.5625 0
0.6875 0.5 0
0.75 0.5 0
0.6875 0.5625 0
0.75 0.5625 0
0.625 0.5625 0
0.6875 0.5625 0
0.625 0.625 0
0.6875 0.625 0
0.6875 0.5625 0
0.75 0.5625 0
0.6875 0.625 0
0.75 0.625 0
0.5 0.625 0
0.5625 0.625 0
0.5 0.6875 0
0.5625 0.6875 0
0.5625 0.625 0
0.625 0.625 0
0.5625 0.6875 0
0.625 0.6875 0
0.5 0.6875 0
0.5625 0.6875 0
0.5 0.75 0
0.5625 0.75 0
0.5625 0.6875 0
0.625 0.6875 0
0.5625 0.75 0
0.625 0.75 0
0.625 0.625 0
0.6875 0.625 0
0.625 0.6875 0
0.6875 0.6875 0
0.6875 0.625 0
0.75 0.625 0
0.6875 0.6875 0
0.75 0.6875 0
0.625 0.6875 0
0.6875 0.6875 0
0.625 0.75 0
0.6875 0.75 0
0.6875 0.6875 0
0.75 0.6875 0
0.6875 0.75 0
0.75 0.75 0
0.75 0.5 0
0.8125 0.5 0
0.75 0.5625 0
0.8125 0.5625 0
0.8125 0.5 0
0.875 0.5 0
0.8125 0.5625 0
0.875 0.5625 0
0.75 0.5625 0
0.8125 0.5625 0
0.75 0.625 0
0.8125 0.625 0
0.8125 0.5625 0
0.875 0.5625 0
0.8125 0.625 0
0.875 0.625 0
0.875 0.5 0
0.9375 0.5 0
0.875 0.5625 0
0.9375 0.5625 0
0.9375 0.5 0
1 0.5 0
0.9375 0.5625 0
1 0.5625 0
0.875 0.5625 0
0.9375 0.5625 0
0.875 0.625 0
0.9375 0.625 0
0.9375 0.5625 0
1 0.5625 0
0.9375 0.625 0
1 0.625 0
0.75 0.625 0
0.8125 0.625 0
0.75 0.6875 0
0.8125 0.6875 0
0.8125 0.625 0
0.875 0.625 0
0.8125 0.6875 0
0.875 0.6875 0
0.75 0.6875 0
0.8125 0.6875 0
0.75 0.75 0
0.8125 0.75 0
0.8125 0.6875 0
0.875 0.6875 0
0.8125 0.75 0
0.875 0.75 0
0.875 0.625 0
0.9375 0.625 0
0.875 0.6875 0
0.9375 0.6875 0
0.9375 0.625 0
1 0.625 0
0.9375 0.6875 0
1 0.6875 0
0.875 0.6875 0
0.9375 0.6875 0
0.875 0.75 0
0.9375 0.75 0
0.9375 0.6875 0
1 0.6875 0
0.9375 0.75 0
1 0.75 0
0.5 0.75 0
0.5625 0.75 0
0.5 0.8125 0
0.5625 0.8125 0
0.5625 0.75 0
0.625 0.75 0
0.5625 0.8125 0
0.625 0.8125 0
0.5 0.8125 0
0.5625 0.8125 0
0.5 0.875 0
0.5625 0.875 0
0.5625 0.8125 0
0.625 0.8125 0
0.5625 0.875 0
0.625 0.875 0
0.625 0.75 0
0.6875 0.75 0
0.625 0.8125 0
0.6875 0.8125 0
0.6875 0.75 0
0.75 0.75 0
0.6875 0.8125 0
0.75 0.8125 0
0.625 0.8125 0
0.6875 0.8125 0
0.625 0.875 0
0.6875 0.875 0
0.6875 0.8125 0
0.75 0.8125 0
0.6875 0.875 0
0.75 0.875 0
0.5 0.875 0
0.5625 0.875 0
0.5 0.9375 0
0.5625 0.9375 0
0.5625 0.875 0
0.625 0.875 0
0.5625 0.9375 0
0.625 0.9375 0
0.5 0.9375 0
0.5625 0.9375 0
0.5 1 0
0.5625 1 0
0.5625 0.9375 0
0.625 0.9375 0
0.5625 1 0
0.625 1 0
0.625 0.875 0
0.6875 0.875 0
0.625 0.9375 0
0.6875 0.9375 0
0.6875 0.875 0
0.75 0.875 0
0.6875 0.9375 0
0.75 0.9375 0
0.625 0.9375 0
0.6875 0.9375 0
0.625 1 0
0.6875 1 0
0.6875 0.9375 0
0.75 0.9375 0
0.6875 1 0
0.75 1 0
0.75 0.75 0
0.8125 0.75 0
0.75 0.8125 0
0.8125 0.8125 0
0.8125 0.75 0
0.875 0.75 0
0.8125 0.8125 0
0.875 0.8125 0
0.75 0.8125 0
0.8125 0.8125 0
0.75 0.875 0
0.8125 0.875 0
0.8125 0.8125 0
0.875 0.8125 0
0.8125 0.875 0
0.875 0.875 0
0.875 0.75 0
0.9375 0.75 0
0.875 0.8125 0
0.9375 0.8125 0
0.9375 0.75 0
1 0.75 0
0.9375 0.8125 0
1 0.8125 0
0.875 0.8125 0
0.9375 0.8125 0
0.875 0.875 0
0.9375 0.875 0
0.9375 0.8125 0
1 0.8125 0
0.9375 0.875 0
1 0.875 0
0.75 0.875 0
0.8125 0.875 0
0.75 0.9375 0
0.8125 0.9375 0
0.8125 0.875 0
0.875 0.875 0
0.8125 0.9375 0
0.875 0.9375 0
0.75 0.9375 0
0.8125 0.9375 0
0.75 1 0
0.8125 1 0
0.8125 0.9375 0
0.875 0.9375 0
0.8125 1 0
0.875 1 0
0.875 0.875 0
0.9375 0.875 0
0.875 0.9375 0
0.9375 0.9375 0
0.9375 0.875 0
1 0.875 0
0.9375 0.9375 0
1 0.9375 0
0.875 0.9375 0
0.9375 0.9375 0
0.875 1 0
0.9375 1 0
0.9375 0.9375 0
1 0.9375 0
0.9375 1 0
1 1 0

CELLS 256 1280
4	0	1	3	2
4	4	5	7	6
4	8	9	11	10
4	12	13	15	14
4	16	17	19	18
4	20	21	23	22
4	24	25	27	26
4	28	29	31	30
4	32	33	35	34
4	36	37	39	38
4	40	41	43	42
4	44	45	47	46
4	48	49	51	50
4	52	53	55	54
4	56	57	59	58
4	60	61	63	62
4	64	65	67	66
4	68	69	71	70
4	72	73	75	74
4	76	77	79	78
4	80	81	83	82
4	84	85	87	86
4	88	89	91	90
4	92	93	95	94
4	96	97	99	98
4	100	101	103	102
4	104	105	107	106
4	108	109	111	110
4	112	113	115	114
4	116	117	119	118
4	120	121	123	122
4	124	125	127	126
4	128	129	131	130
4	132	133	135	134
4	136	137	139	138
4	140	141	143	142
4	144	145	147	146
4	148	149	151	150
4	152	153	155	154
4	156	157	159	158
4	160	161	163	162
4	164	165	167	166
4	168	169	171	170
4	172	173	175	174
4	176	177	179	178
4	180	181	183	182
4	184	185	187	186
4	188	189	191	190
4	192	193	195	194
4	196	197	199	198
4	200	201	203	202
4	204	205	207	206
4	208	209	211	210
4	212	213	215	214
4	216	217	219	218
4	220	221	223	222
4	224	225	227	226
4	228	229	231	230
4	232	233	235	234
4	236	237	239	238
4	240	241	243	242
4	244	245	247	246
4	248	249	251	250
4	252	253	255	254
4	256	257	259	258
4	260	261	263	262
4	264	265	267	266
4	268	269	271	270
4	272	273	275	274
4	276	277	279	278
4	280	281	283	282
4	284	285	287	286
4	288	289	291	290
4	292	293	295	294
4	296	297	299	298
4	300	301	303	302
4	304	305	307	306
4	308	309	311	310
4	312	313	315	314
4	316	317	319	318
4	320	321	323	322
4	324	325	327	326
4	328	329	331	330
4	332	333	335	334
4	336	337	339	338
4	340	341	343	342
4	344	345	347	346
4	348	349	351	350
4	352	353	355	354
4	356	357	359	358
4	360	361	363	362
4	364	365	367	366
4	368	369	371	370
4	372	373	375	374
4	376	377	379	378
4	380	381	383	382
4	384	385	387	386
4	388	389	391	390
4	392	393	395	394
4	396	397	399	398
4	400	401	403	402
4	404	405	407	406
4	408	409	411	410
4	412	413	415	414
4	416	417	419	418
4	420	421	423	422
4	424	425	427	426
4	428	429	431	430
4	432	433	435	434
4	436	437	439	438
4	440	441	443	442
4	444	445	447	446
4	448	449	451	450
4	452	453	455	454
4	456	457	459	458
4	460	461	463	462
4	464	465	467	466
4	468	469	471	470
4	472	473	475	474
4	476	477	479	478
4	480	481	483	482
4	484	485	487	486
4	488	489	491	490
4	492	493	495	494
4	496	497	499	498
4	500	501	503	502
4	504	505	507	506
4	508	509	511	510
4	512	513	515	514
4	516	517	519	518
4	520	521	523	522
4	524	525	527	526
4	528	529	531	530
4	532	533	535	534
4	536	537	539	538
4	540	541	543	542
4	544	545	547	546
4	548	549	551	550
4	552	553	555	554
4	556	557	559	558
4	560	561	563	562
4	564	565	567	566
4	568	569	571	570
4	572	573	575	574
4	576	577	579	578
4	580	581	583	582
4	584	585	587	586
4	588	589	591	590
4	592	593	595	594
4	596	597	599	598
4	600	601	603	602
4	604	605	607	606
4	608	609	611	610
4	612	613	615	614
4	616	617	619	618
4	620	621	623	622
4	624	625	627	626
4	628	629	631	630
4	632	633	635	634
4	636	637	639	638
4	640	641	643	642
4	644	645	647	646
4	648	649	651	650
4	652	653	655	654
4	656	657	659	658
4	660	661	663	662
4	664	665	667	666
4	668	669	671	670
4	672	673	675	674
4	676	677	679	678
4	680	681	683	682
4	684	685	687	686
4	688	689	691	690
4	692	693	695	694
4	696	697	699	698
4	700	701	703	702
4	704	705	707	706
4	708	709	711	710
4	712	713	715	714
4	716	717	719	718
4	720	721	723	722
4	724	725	727	726
4	728	729	731	730
4	732	733	735	734
4	736	737	739	738
4	740	741	743	742
4	744	745	747	746
4	748	749	751	750
4	752	753	755	754
4	756	757	759	758
4	760	761	763	762
4	764	765	767	766
4	768	769	771	770
4	772	773	775	774
4	776	777	779	778
4	780	781	783	782
4	784	785	787	786
4	788	789	791	790
4	792	793	795	794
4	796	797	799	798
4	800	801	803	802
4	804	805	807	806
4	808	809	811	810
4	812	813	815	814
4	816	817	819	818
4	820	821	823	822
4	824	825	827	826
4	828	829	831	830
4	832	833	835	834
4	836	837	839	838
4	840	841	843	842
4	844	845	847	846
4	848	849	851	850
4	852	853	855	854
4	856	857	859	858
4	860	861	863	862
4	864	865	867	866
4	868	869	871	870
4	872	873	875	874
4	876	877	879	878
4	880	881	883	882
4	884	885	887	886
4	888	889	891	890
4	892	893	895	894
4	896	897	899	898
4	900	901	903	902
4	904	905	907	906
4	908	909	911	910
4	912	913	915	914
4	916	917	919	918
4	920	921	923	922
4	924	925	927	926
4	928	929	931	930
4	932	933	935	934
4	936	937	939	938
4	940	941	943	942
4	944	945	947	946
4	948	949	951	950
4	952	953	955	954
4	956	957	959	958
4	960	961	963	962
4	964	965	967	966
4	968	969	971	970
4	972	973	975	974
4	976	977	979	978
4	980	981	983	982
4	984	985	987	986
4	988	989	991	990
4	992	993	995	994
4	996	997	999	998
4	1000	1001	1003	1002
4	1004	1005	1007	1006
4	1008	1009	1011	1010
4	1012	1013	1015	1014
4	1016	1017	1019	1018
4	1020	1021	1023	1022

CELL_TYPES 256
 9 9 9 9 9 9 9 9 9 9 9 9 9 9 9 9 9 9 9 9 9 9 9 9 9 9 9 9 9 9 9 9 9 9 9 9 9 9 9 9 9 9 9 9 9 9 9 9 9 9 9 9 9 9 9 9 9 9 9 9 9 9 9 9 9 9 9 9 9 9 9 9 9 9 9 9 9 9 9 9 9 9 9 9 9 9 9 9 9 9 9 9 9 9 9 9 9 9 9 9 9 9 9 9 9 9 9 9 9 9 9 9 9 9 9 9 9 9 9 9 9 9 9 9 9 9 9 9 9 9 9 9 9 9 9 9 9 9 9 9 9 9 9 9 9 9 9 9 9 9 9 9 9 9 9 9 9 9 9 9 9 9 9 9 9 9 9 9 9 9 9 9 9 9 9 9 9 9 9 9 9 9 9 9 9 9 9 9 9 9 9 9 9 9 9 9 9 9 9 9 9 9 9 9 9 9 9 9 9 9 9 9 9 9 9 9 9 9 9 9 9 9 9 9 9 9 9 9 9 9 9 9 9 9 9 9 9 9 9 9 9 9 9 9 9 9 9 9 9 9 9 9 9 9 9 9
POINT_DATA 1024
SCALARS solution double 1
LOOKUP_TABLE default
0 0.19509 0 0.200941 0.19509 0.382683 0.200941 0.39416 0 0.200941 0 0.206228 0.200941 0.39416 0.206228 0.40453 0.382683 0.55557 0.39416 0.572231 0.55557 0.707107 0.572231 0.728312 0.39416 0.572231 0.40453 0.587286 0.572231 0.728312 0.587286 0.747474 0 0.206228 0 0.210995 0.206228 0.40453 0.210995 0.413881 0 0.210995 0 0.215263 0.210995 0.413881 0.215263 0.422255 0.40453 0.587286 0.413881 0.600862 0.587286 0.747474 0.600862 0.764753 0.413881 0.600862 0.422255 0.613019 0.600862 0.764753 0.613019 0.780225 0.707107 0.83147 0.728312 0.856405 0.83147 0.92388 0.856405 0.951586 0.728312 0.856405 0.747474 0.878936 0.856405 0.951586 0.878936 0.976622 0.92388 0.980785 0.951586 1.0102 0.980785 1 1.0102 1.02999 0.951586 1.0102 0.976622 1.03678 1.0102 1.02999 1.03678 1.05709 0.747474 0.878936 0.764753 0.899254 0.878936 0.976622 0.899254 0.999197 0.764753 0.899254 0.780225 0.917447 0.899254 0.999197 0.917447 1.01941 0.976622 1.03678 0.999197 1.06074 1.03678 1.05709 1.06074 1.08152 0.999197 1.06074 1.01941 1.0822 1.06074 1.08152 1.0822 1.1034 0 0.215263 0 0.219074 0.215263 0.422255 0.219074 0.429729 0 0.219074 0 0.222437 0.219074 0.429729 0.222437 0.436326 0.422255 0.613019 0.429729 0.62387 0.613019 0.780225 0.62387 0.794036 0.429729 0.62387 0.436326 0.633447 0.62387 0.794036 0.633447 0.806225 0 0.222437 0 0.225395 0.222437 0.436326 0.225395 0.442127 0 0.225395 0 0.227947 0.225395 0.442127 0.227947 0.447135 0.436326 0.633447 0.442127 0.641869 0.633447 0.806225 0.641869 0.816945 0.442127 0.641869 0.447135 0.649139 0.641869 0.816945 0.649139 0.826197 0.780225 0.917447 0.794036 0.933687 0.917447 1.01941 0.933687 1.03746 0.794036 0.933687 0.806225 0.94802 0.933687 1.03746 0.94802 1.05338 1.01941 1.0822 1.03746 1.10136 1.0822 1.1034 1.10136 1.12294 1.03746 1.10136 1.05338 1.11827 1.10136 1.12294 1.11827 1.14017 0.806225 0.94802 0.816945 0.960625 0.94802 1.05338 0.960625 1.06739 0.816945 0.960625 0.826197 0.971505 0.960625 1.06739 0.971505 1.07948 1.05338 1.11827 1.06739 1.13313 1.11827 1.14017 1.13313 1.15533 1.06739 1.13313 1.07948 1.14597 1.13313 1.15533 1.14597 1.16842 1 0.980785 1.02999 1.0102 0.980785 0.92388 1.0102 0.951586 1.02999 1.0102 1.05709 1.03678 1.0102 0.951586 1.03678 0.976622 0.92388 0.83147 0.951586 0.856405 0.83147 0.707107 0.856405 0.728312 0.951586 0.856405 0.976622 0.878936 0.856405 0.728312 0.878936 0.747474 1.05709 1.03678 1.08152 1.06074 1.03678 0.976622 1.06074 0.999197 1.08152 1.06074 1.1034 1.0822 1.06074 0.999197 1.0822 1.01941 0.976622 0.878936 0.999197 0.899254 0.878936 0.747474 0.899254 0.764753 0.999197 0.899254 1.01941 0.917447 0.899254 0.764753 0.917447 0.780225 0.707107 0.55557 0.728312 0.572231 0.55557 0.382683 0.572231 0.39416 0.728312 0.572231 0.747474 0.587286 0.572231 0.39416 0.587286 0.40453 0.382683 0.19509 0.39416 0.200941 0.19509 1.22465e-16 0.200941 1.26115e-16 0.39416 0.200941 0.40453 0.206228 0.200941 1.26115e-16 0.206228 1.29426e-16 0.747474 0.587286 0.764753 0.600862 0.587286 0.40453 0.600862 0.413881 0.764753 0.600862 0.780225 0.613019 0.600862 0.413881 0.613019 0.422255 0.40453 0.206228 0.413881 0.210995 0.206228 1.29426e-16 0.210995 1.32413e-16 0.413881 0.210995 0.422255 0.215263 0.210995 1.32413e-16 0.215263 1.35093e-16 1.1034 1.0822 1.12294 1.10136 1.0822 1.01941 1.10136 1.03746 1.12294 1.10136 1.14017 1.11827 1.10136 1.03746 1.11827 1.05338 1.01941 0.917447 1.03746 0.933687 0.917447 0.780225 0.933687 0.794036 1.03746 0.933687 1.05338 0.94802 0.933687 0.794036 0.94802 0.806225 1.14017 1.11827 1.15533 1.13313 1.11827 1.05338 1.13313 1.06739 1.15533 1.13313 1.16842 1.14597 1.13313 1.06739 1.14597 1.07948 1.05338 0.94802 1.06739 0.960625 0.94802 0.806225 0.960625 0.816945 1.06739 0.960625 1.07948 0.971505 0.960625 0.816945 0.971505 0.826197 0.780225 0.613019 0.794036 0.62387 0.613019 0.422255 0.62387 0.429729 0.794036 0.62387 0.806225 0.633447 0.62387 0.429729 0.633447 0.436326 0.422255 0.215263 0.429729 0.219074 0.215263 1.35093e-16 0.219074 1.37484e-16 0.429729 0.219074 0.436326 0.222437 0.219074 1.37484e-16 0.222437 1.39599e-16 0.806225 0.633447 0.816945 0.641869 0.633447 0.436326 0.641869 0.442127 0.816945 0.641869 0.826197 0.649139 0.641869 0.442127 0.649139 0.447135 0.436326 0.222437 0.442127 0.225395 0.222437 1.39599e-16 0.225395 1.41455e-16 0.442127 0.225395 0.447135 0.227947 0.225395 1.41455e-16 0.227947 1.43063e-16 0 0.227947 0 0.230144 0.227947 0.447135 0.230144 0.451444 0 0.230144 0 0.231972 0.230144 0.451444 0.231972 0.455029 0.447135 0.649139 0.451444 0.655395 0.649139 0.826197 0.655395 0.83416 0.451444 0.655395 0.455029 0.6606 0.655395 0.83416 0.6606 0.840784 0 0.231972 0 0.233491 0.231972 0.455029 0.233491 0.45801 0 0.233491 0 0.234671 0.233491 0.45801 0.234671 0.460323 0.455029 0.6606 0.45801 0.664927 0.6606 0.840784 0.664927 0.846291 0.45801 0.664927 0.460323 0.668285 0.664927 0.846291 0.668285 0.850566 0.826197 0.971505 0.83416 0.980868 0.971505 1.07948 0.980868 1.08988 0.83416 0.980868 0.840784 0.988658 0.980868 1.08988 0.988658 1.09854 1.07948 1.14597 1.08988 1.15701 1.14597 1.16842 1.15701 1.17968 1.08988 1.15701 1.09854 1.1662 1.15701 1.17968 1.1662 1.18905 0.840784 0.988658 0.846291 0.995133 0.988658 1.09854 0.995133 1.10573 0.846291 0.995133 0.850566 1.00016 0.995133 1.10573 1.00016 1.11132 1.09854 1.1662 1.10573 1.17384 1.1662 1.18905 1.17384 1.19684 1.10573 1.17384 1.11132 1.17977 1.17384 1.19684 1.17977 1.20288 0 0.234671 0 0.235589 0.234671 0.460323 0.235589 0.462125 0 0.235589 0 0.236189 0.235589 0.462125 0.236189 0.463302 0.460323 0.668285 0.462125 0.670901 0.668285 0.850566 0.670901 0.853896 0.462125 0.670901 0.463302 0.67261 0.670901 0.853896 0.67261 0.85607 0 0.236189 0 0.236578 0.236189 0.463302 0.236578 0.464064 0 0.236578 0 0.23666 0.236578 0.464064 0.23666 0.464224 0.463302 0.67261 0.464064 0.673717 0.67261 0.85607 0.673717 0.857479 0.464064 0.673717 0.464224 0.673949 0.673717 0.857479 0.673949 0.857775 0.850566 1.00016 0.853896 1.00407 1.00016 1.11132 1.00407 1.11567 0.853896 1.00407 0.85607 1.00663 1.00407 1.11567 1.00663 1.11851 1.11132 1.17977 1.11567 1.18439 1.17977 1.20288 1.18439 1.20759 1.11567 1.18439 1.11851 1.1874 1.18439 1.20759 1.1874 1.21067 0.85607 1.00663 0.857479 1.00829 1.00663 1.11851 1.00829 1.12035 0.857479 1.00829 0.857775 1.00864 1.00829 1.12035 1.00864 1.12074 1.11851 1.1874 1.12035 1.18936 1.1874 1.21067 1.18936 1.21266 1.12035 1.18936 1.12074 1.18977 1.18936 1.21266 1.18977 1.21308 1.16842 1.14597 1.17968 1.15701 1.14597 1.07948 1.15701 1.08988 1.17968 1.15701 1.18905 1.1662 1.15701 1.08988 1.1662 1.09854 1.07948 0.971505 1.08988 0.980868 0.971505 0.826197 0.980868 0.83416 1.08988 0.980868 1.09854 0.988658 0.980868 0.83416 0.988658 0.840784 1.18905 1.1662 1.19684 1.17384 1.1662 1.09854 1.17384 1.10573 1.19684 1.17384 1.20288 1.17977 1.17384 1.10573 1.17977 1.11132 1.09854 0.988658 1.10573 0.995133 0.988658 0.840784 0.995133 0.846291 1.10573 0.995133 1.11132 1.00016 0.995133 0.846291 1.00016 0.850566 0.826197 0.649139 0.83416 0.655395 0.649139 0.447135 0.655395 0.451444 0.83416 0.655395 0.840784 0.6606 0.655395 0.451444 0.6606 0.455029 0.447135 0.227947 0.451444 0.230144 0.227947 1.43063e-16 0.230144 1.44439e-16 0.451444 0.230144 0.455029 0.231972 0.230144 1.44439e-16 0.231972 1.45595e-16 0.840784 0.6606 0.846291 0.664927 0.6606 0.455029 0.664927 0.45801 0.846291 0.664927 0.850566 0.668285 0.664927 0.45801 0.668285 0.460323 0.455029 0.231972 0.45801 0.233491 0.231972 1.45595e-16 0.233491 1.46543e-16 0.45801 0.233491 0.460323 0.234671 0.233491 1.46543e-16 0.234671 1.47295e-16 1.20288 1.17977 1.20759 1.18439 1.17977 1.11132 1.18439 1.11567 1.20759 1.18439 1.21067 1.1874 1.18439 1.11567 1.1874 1.11851 1.11132 1.00016 1.11567 1.00407 1.00016 0.850566 1.00407 0.853896 1.11567 1.00407 1.11851 1.00663 1.00407 0.853896 1.00663 0.85607 1.21067 1.1874 1.21266 1.18936 1.1874 1.11851 1.18936 1.12035 1.21266 1.18936 1.21308 1.18977 1.18936 1.12035 1.18977 1.12074 1.11851 1.00663 1.12035 1.00829 1.00663 0.85607 1.00829 0.857479 1.12035 1.00829 1.12074 1.00864 1.00829 0.857479 1.00864 0.857775 0.850566 0.668285 0.853896 0.670901 0.668285 0.460323 0.670901 0.462125 0.853896 0.670901 0.85607 0.67261 0.670901 0.462125 0.67261 0.463302 0.460323 0.234671 0.462125 0.235589 0.234671 1.47295e-16 0.235589 1.47862e-16 0.462125 0.235589 0.463302 0.236189 0.235589 1.47862e-16 0.236189 1.48255e-16 0.85607 0.67261 0.857479 0.673717 0.67261 0.463302 0.673717 0.464064 0.857479 0.673717 0.857775 0.673949 0.673717 0.464064 0.673949 0.464224 0.463302 0.236189 0.464064 0.236578 0.236189 1.48255e-16 0.236578 1.48483e-16 0.464064 0.236578 0.464224 0.23666 0.236578 1.48483e-16 0.23666 1.48557e-16 
SCALARS exact_solution double 1
LOOKUP_TABLE default
0 0.19509 0 0.200906 0.19509 0.382683 0.200906 0.394091 0 0.200906 0 0.206179 0.200906 0.394091 0.206179 0.404435 0.382683 0.55557 0.394091 0.572132 0.55557 0.707107 0.572132 0.728186 0.394091 0.572132 0.404435 0.587149 0.572132 0.728186 0.587149 0.747299 0 0.206179 0 0.210938 0.206179 0.404435 0.210938 0.413769 0 0.210938 0 0.215208 0.210938 0.413769 0.215208 0.422146 0.404435 0.587149 0.413769 0.6007 0.587149 0.747299 0.6007 0.764546 0.413769 0.6007 0.422146 0.612861 0.6007 0.764546 0.612861 0.780024 0.707107 0.83147 0.728186 0.856256 0.83147 0.92388 0.856256 0.951421 0.728186 0.856256 0.747299 0.87873 0.856256 0.951421 0.87873 0.976393 0.92388 0.980785 0.951421 1.01002 0.980785 1 1.01002 1.02981 0.951421 1.01002 0.976393 1.03653 1.01002 1.02981 1.03653 1.05684 0.747299 0.87873 0.764546 0.899011 0.87873 0.976393 0.899011 0.998927 0.764546 0.899011 0.780024 0.917212 0.899011 0.998927 0.917212 1.01915 0.976393 1.03653 0.998927 1.06046 1.03653 1.05684 1.06046 1.08123 0.998927 1.06046 1.01915 1.08192 1.06046 1.08123 1.08192 1.10312 0 0.215208 0 0.219016 0.215208 0.422146 0.219016 0.429616 0 0.219016 0 0.222386 0.219016 0.429616 0.222386 0.436227 0.422146 0.612861 0.429616 0.623706 0.612861 0.780024 0.623706 0.793827 0.429616 0.623706 0.436227 0.633303 0.623706 0.793827 0.633303 0.806042 0 0.222386 0 0.225342 0.222386 0.436227 0.225342 0.442024 0 0.225342 0 0.227905 0.225342 0.442024 0.227905 0.447051 0.436227 0.633303 0.442024 0.641719 0.633303 0.806042 0.641719 0.816753 0.442024 0.641719 0.447051 0.649018 0.641719 0.816753 0.649018 0.826043 0.780024 0.917212 0.793827 0.933442 0.917212 1.01915 0.933442 1.03718 0.793827 0.933442 0.806042 0.947805 0.933442 1.03718 0.947805 1.05314 1.01915 1.08192 1.03718 1.10107 1.08192 1.10312 1.10107 1.12264 1.03718 1.10107 1.05314 1.11801 1.10107 1.12264 1.11801 1.13991 0.806042 0.947805 0.816753 0.9604 0.947805 1.05314 0.9604 1.06714 0.816753 0.9604 0.826043 0.971324 0.9604 1.06714 0.971324 1.07928 1.05314 1.11801 1.06714 1.13287 1.11801 1.13991 1.13287 1.15506 1.06714 1.13287 1.07928 1.14575 1.13287 1.15506 1.14575 1.1682 1 0.980785 1.02981 1.01002 0.980785 0.92388 1.01002 0.951421 1.02981 1.01002 1.05684 1.03653 1.01002 0.951421 1.03653 0.976393 0.92388 0.83147 0.951421 0.856256 0.83147 0.707107 0.856256 0.728186 0.951421 0.856256 0.976393 0.87873 0.856256 0.728186 0.87873 0.747299 1.05684 1.03653 1.08123 1.06046 1.03653 0.976393 1.06046 0.998927 1.08123 1.06046 1.10312 1.08192 1.06046 0.998927 1.08192 1.01915 0.976393 0.87873 0.998927 0.899011 0.87873 0.747299 0.899011 0.764546 0.998927 0.899011 1.01915 0.917212 0.899011 0.764546 0.917212 0.780024 0.707107 0.55557 0.728186 0.572132 0.55557 0.382683 0.572132 0.394091 0.728186 0.572132 0.747299 0.587149 0.572132 0.394091 0.587149 0.404435 0.382683 0.19509 0.394091 0.200906 0.19509 1.22465e-16 0.200906 1.26115e-16 0.394091 0.200906 0.404435 0.206179 0.200906 1.26115e-16 0.206179 1.29426e-16 0.747299 0.587149 0.764546 0.6007 0.587149 0.404435 0.6007 0.413769 0.764546 0.6007 0.780024 0.612861 0.6007 0.413769 0.612861 0.422146 0.404435 0.206179 0.413769 0.210938 0.206179 1.29426e-16 0.210938 1.32413e-16 0.413769 0.210938 0.422146 0.215208 0.210938 1.32413e-16 0.215208 1.35093e-16 1.10312 1.08192 1.12264 1.10107 1.08192 1.01915 1.10107 1.03718 1.12264 1.10107 1.13991 1.11801 1.10107 1.03718 1.11801 1.05314 1.01915 0.917212 1.03718 0.933442 0.917212 0.780024 0.933442 0.793827 1.03718 0.933442 1.05314 0.947805 0.933442 0.793827 0.947805 0.806042 1.13991 1.11801 1.15506 1.13287 1.11801 1.05314 1.13287 1.06714 1.15506 1.13287 1.1682 1.14575 1.13287 1.06714 1.14575 1.07928 1.05314 0.947805 1.06714 0.9604 0.947805 0.806042 0.9604 0.816753 1.06714 0.9604 1.07928 0.971324 0.9604 0.816753 0.971324 0.826043 0.780024 0.612861 0.793827 0.623706 0.612861 0.422146 0.623706 0.429616 0.793827 0.623706 0.806042 0.633303 0.623706 0.429616 0.633303 0.436227 0.422146 0.215208 0.429616 0.219016 0.215208 1.35093e-16 0.219016 1.37484e-16 0.429616 0.219016 0.436227 0.222386 0.219016 1.37484e-16 0.222386 1.39599e-16 0.806042 0.633303 0.816753 0.641719 0.633303 0.436227 0.641719 0.442024 0.816753 0.641719 0.826043 0.649018 0.641719 0.442024 0.649018 0.447051 0.436227 0.222386 0.442024 0.225342 0.222386 1.39599e-16 0.225342 1.41455e-16 0.442024 0.225342 0.447051 0.227905 0.225342 1.41455e-16 0.227905 1.43063e-16 0 0.227905 0 0.230097 0.227905 0.447051 0.230097 0.451351 0 0.230097 0 0.231938 0.230097 0.451351 0.231938 0.454963 0.447051 0.649018 0.451351 0.65526 0.649018 0.826043 0.65526 0.833988 0.451351 0.65526 0.454963 0.660504 0.65526 0.833988 0.660504 0.840662 0 0.231938 0 0.233448 0.231938 0.454963 0.233448 0.457925 0 0.233448 0 0.234646 0.233448 0.457925 0.234646 0.460275 0.454963 0.660504 0.457925 0.664805 0.660504 0.840662 0.664805 0.846136 0.457925 0.664805 0.460275 0.668216 0.664805 0.846136 0.668216 0.850477 0.826043 0.971324 0.833988 0.980666 0.971324 1.07928 0.980666 1.08966 0.833988 0.980666 0.840662 0.988514 0.980666 1.08966 0.988514 1.09838 1.07928 1.14575 1.08966 1.15677 1.14575 1.1682 1.15677 1.17944 1.08966 1.15677 1.09838 1.16603 1.15677 1.17944 1.16603 1.18888 0.840662 0.988514 0.846136 0.99495 0.988514 1.09838 0.99495 1.10553 0.846136 0.99495 0.850477 1.00006 0.99495 1.10553 1.00006 1.1112 1.09838 1.16603 1.10553 1.17362 1.16603 1.18888 1.17362 1.19662 1.10553 1.17362 1.1112 1.17965 1.17362 1.19662 1.17965 1.20276 0 0.234646 0 0.235549 0.234646 0.460275 0.235549 0.462046 0 0.235549 0 0.236175 0.235549 0.462046 0.236175 0.463273 0.460275 0.668216 0.462046 0.670787 0.668216 0.850477 0.670787 0.85375 0.462046 0.670787 0.463273 0.672568 0.670787 0.85375 0.672568 0.856017 0 0.236175 0 0.236539 0.236175 0.463273 0.236539 0.463987 0 0.236539 0 0.236657 0.236539 0.463987 0.236657 0.464218 0.463273 0.672568 0.463987 0.673605 0.672568 0.856017 0.673605 0.857336 0.463987 0.673605 0.464218 0.673941 0.673605 0.857336 0.673941 0.857764 0.850477 1.00006 0.85375 1.0039 1.00006 1.1112 1.0039 1.11548 0.85375 1.0039 0.856017 1.00657 1.0039 1.11548 1.00657 1.11844 1.1112 1.17965 1.11548 1.18419 1.17965 1.20276 1.18419 1.20739 1.11548 1.18419 1.11844 1.18733 1.18419 1.20739 1.18733 1.21059 0.856017 1.00657 0.857336 1.00812 1.00657 1.11844 1.00812 1.12016 0.857336 1.00812 0.857764 1.00862 1.00812 1.12016 1.00862 1.12072 1.11844 1.18733 1.12016 1.18916 1.18733 1.21059 1.18916 1.21246 1.12016 1.18916 1.12072 1.18975 1.18916 1.21246 1.18975 1.21306 1.1682 1.14575 1.17944 1.15677 1.14575 1.07928 1.15677 1.08966 1.17944 1.15677 1.18888 1.16603 1.15677 1.08966 1.16603 1.09838 1.07928 0.971324 1.08966 0.980666 0.971324 0.826043 0.980666 0.833988 1.08966 0.980666 1.09838 0.988514 0.980666 0.833988 0.988514 0.840662 1.18888 1.16603 1.19662 1.17362 1.16603 1.09838 1.17362 1.10553 1.19662 1.17362 1.20276 1.17965 1.17362 1.10553 1.17965 1.1112 1.09838 0.988514 1.10553 0.99495 0.988514 0.840662 0.99495 0.846136 1.10553 0.99495 1.1112 1.00006 0.99495 0.846136 1.00006 0.850477 0.826043 0.649018 0.833988 0.65526 0.649018 0.447051 0.65526 0.451351 0.833988 0.65526 0.840662 0.660504 0.65526 0.451351 0.660504 0.454963 0.447051 0.227905 0.451351 0.230097 0.227905 1.43063e-16 0.230097 1.44439e-16 0.451351 0.230097 0.454963 0.231938 0.230097 1.44439e-16 0.231938 1.45595e-16 0.840662 0.660504 0.846136 0.664805 0.660504 0.454963 0.664805 0.457925 0.846136 0.664805 0.850477 0.668216 0.664805 0.457925 0.668216 0.460275 0.454963 0.231938 0.457925 0.233448 0.231938 1.45595e-16 0.233448 1.46543e-16 0.457925 0.233448 0.460275 0.234646 0.233448 1.46543e-16 0.234646 1.47295e-16 1.20276 1.17965 1.20739 1.18419 1.17965 1.1112 1.18419 1.11548 1.20739 1.18419 1.21059 1.18733 1.18419 1.11548 1.18733 1.11844 1.1112 1.00006 1.11548 1.0039 1.00006 0.850477 1.0039 0.85375 1.11548 1.0039 1.11844 1.00657 1.0039 0.85375 1.00657 0.856017 1.21059 1.18733 1.21246 1.18916 1.18733 1.11844 1.18916 1.12016 1.21246 1.18916 1.21306 1.18975 1.18916 1.12016 1.18975 1.12072 1.11844 1.00657 1.12016 1.00812 1.00657 0.856017 1.00812 0.857336 1.12016 1.00812 1.12072 1.00862 1.00812 0.857336 1.00862 0.857764 0.850477 0.668216 0.85375 0.670787 0.668216 0.460275 0.670787 0.462046 0.85375 0.670787 0.856017 0.672568 0.670787 0.462046 0.672568 0.463273 0.460275 0.234646 0.462046 0.235549 0.234646 1.47295e-16 0.235549 1.47862e-16 0.462046 0.235549 0.463273 0.236175 0.235549 1.47862e-16 0.236175 1.48255e-16 0.856017 0.672568 0.857336 0.673605 0.672568 0.463273 0.673605 0.463987 0.857336 0.673605 0.857764 0.673941 0.673605 0.463987 0.673941 0.464218 0.463273 0.236175 0.463987 0.236539 0.236175 1.48255e-16 0.236539 1.48483e-16 0.463987 0.236539 0.464218 0.236657 0.236539 1.48483e-16 0.236657 1.48557e-16 
