# vtk DataFile Version 3.0
#This file was generated by the deal.II library on 2026/6/24 at 22:41:49
ASCII
DATASET UNSTRUCTURED_GRID

POINTS 64 double
0 0 0
0.5 0 0
0 0.5 0
0.5 0.5 0
0 0 0.5
0.5 0 0.5
0 0.5 0.5
0.5 0.5 0.5
0.5 0 0
1 0 0
0.5 0.5 0
1 0.5 0
0.5 0 0.5
1 0 0.5
0.5 0.5 0.5
1 0.5 0.5
0 0.5 0
0.5 0.5 0
0 1 0
0.5 1 0
0 0.5 0.5
0.5 0.5 0.5
0 1 0.5
0.5 1 0.5
0.5 0.5 0
1 0.5 0
0.5 1 0
1 1 0
0.5 0.5 0.5
1 0.5 0.5
0.5 1 0.5
1 1 0.5
0 0 0.5
0.5 0 0.5
0 0.5 0.5
0.5 0.5 0.5
0 0 1
0.5 0 1
0 0.5 1
0.5 0.5 1
0.5 0 0.5
1 0 0.5
0.5 0.5 0.5
1 0.5 0.5
0.5 0 1
1 0 1
0.5 0.5 1
1 0.5 1
0 0.5 0.5
0.5 0.5 0.5
0 1 0.5
0.5 1 0.5
0 0.5 1
0.5 0.5 1
0 1 1
0.5 1 1
0.5 0.5 0.5
1 0.5 0.5
0.5 1 0.5
1 1 0.5
0.5 0.5 1
1 0.5 1
0.5 1 1
1 1 1

CELLS 8 72
8	0	1	3	2	4	5	7	6
8	8	9	11	10	12	13	15	14
8	16	17	19	18	20	21	23	22
8	24	25	27	26	28	29	31	30
8	32	33	35	34	36	37	39	38
8	40	41	43	42	44	45	47	46
8	48	49	51	50	52	53	55	54
8	56	57	59	58	60	61	63	62

CELL_TYPES 8
 12 12 12 12 12 12 12 12
POINT_DATA 64
SCALARS solution double 1
LOOKUP_TABLE default
0.551724 0.761905 0.64 0.941176 0.761905 0.761905 0.941176 0.955246 0.761905 0.761905 0.941176 0.941176 0.761905 0.551724 0.955246 0.64 0.64 0.941176 0.551724 0.761905 0.941176 0.955246 0.761905 0.761905 0.941176 0.941176 0.761905 0.761905 0.955246 0.64 0.761905 0.551724 0.761905 0.761905 0.941176 0.955246 0.551724 0.761905 0.64 0.952004 0.761905 0.551724 0.955246 0.64 0.761905 0.761905 0.952004 0.941176 0.941176 0.955246 0.761905 0.761905 0.64 0.952004 0.551724 0.761905 0.955246 0.64 0.761905 0.551724 0.952004 0.941176 0.761905 0.761905 
SCALARS exact_solution double 1
LOOKUP_TABLE default
0.551724 0.761905 0.64 0.941176 0.761905 0.761905 0.941176 0.941176 0.761905 0.761905 0.941176 0.941176 0.761905 0.551724 0.941176 0.64 0.64 0.941176 0.551724 0.761905 0.941176 0.941176 0.761905 0.761905 0.941176 0.941176 0.761905 0.761905 0.941176 0.64 0.761905 0.551724 0.761905 0.761905 0.941176 0.941176 0.551724 0.761905 0.64 0.941176 0.761905 0.551724 0.941176 0.64 0.761905 0.761905 0.941176 0.941176 0.941176 0.941176 0.761905 0.761905 0.64 0.941176 0.551724 0.761905 0.941176 0.64 0.761905 0.551724 0.941176 0.941176 0.761905 0.761905 
